<?xml version="1.0" standalone="no"?>
<!DOCTYPE svg PUBLIC "-//W3C//DTD SVG 20010904//EN"
 "http://www.w3.org/TR/2001/REC-SVG-20010904/DTD/svg10.dtd">
<svg version="1.0" xmlns="http://www.w3.org/2000/svg"
 width="1040.000000pt" height="1560.000000pt" viewBox="0 0 1040.000000 1560.000000"
 preserveAspectRatio="xMidYMid meet">

<g transform="translate(0.000000,1560.000000) scale(0.100000,-0.100000)"
fill="#000000" stroke="none">
<path d="M5545 7015 c-35 -20 -49 -22 -117 -17 -85 5 -118 -3 -183 -50 -22
-16 -83 -56 -135 -90 -52 -34 -97 -64 -100 -67 -7 -9 -41 -29 -70 -44 -16 -8
-24 -18 -22 -30 3 -13 -6 -22 -27 -30 -29 -11 -31 -15 -31 -59 0 -28 -5 -48
-11 -48 -6 0 -9 -7 -6 -14 4 -9 1 -13 -7 -10 -19 7 -40 -40 -33 -76 5 -25 2
-36 -17 -55 -13 -13 -21 -27 -18 -30 4 -3 -2 -3 -12 1 -15 6 -17 3 -11 -15 5
-17 -9 -38 -81 -114 -165 -174 -212 -217 -231 -211 -14 5 -15 4 -4 -4 11 -8 9
-11 -8 -17 -13 -4 -20 -9 -18 -12 3 -2 22 4 44 15 21 11 45 17 53 15 11 -3 12
-2 2 4 -9 7 -1 18 30 43 73 57 74 57 54 26 -10 -16 -28 -45 -40 -65 -11 -19
-34 -48 -51 -64 l-30 -29 34 27 c19 14 43 39 55 53 20 27 43 45 61 48 19 4 85
34 85 39 0 9 -55 -8 -62 -19 -5 -7 -8 -3 -8 9 0 16 105 161 151 209 5 5 8 -28
8 -80 0 -49 2 -98 5 -109 2 -11 5 -24 5 -28 1 -5 7 -7 13 -5 8 3 12 19 10 42
-3 26 0 36 7 32 6 -4 11 0 11 8 0 9 5 16 10 16 13 0 27 -33 36 -85 5 -33 8
-37 14 -20 l9 20 1 -20 c1 -11 4 -14 7 -7 7 19 22 14 17 -5 -4 -15 3 -18 38
-20 30 -2 38 0 28 7 -8 5 -11 12 -8 16 8 8 58 -22 58 -35 0 -5 -7 -14 -15 -21
-23 -19 -18 -30 15 -30 57 0 106 38 80 64 -6 6 -4 16 8 29 16 18 16 20 -2 32
-10 8 -25 11 -34 8 -9 -4 -13 -2 -8 5 4 7 -10 9 -49 5 -51 -5 -57 -4 -62 16
-3 11 -9 21 -14 21 -5 0 -6 -12 -3 -26 5 -20 3 -25 -6 -22 -19 6 -36 35 -26
45 14 14 150 4 162 -12 16 -21 22 -19 22 9 0 31 -45 54 -105 54 -24 1 -47 4
-53 7 -5 3 -10 34 -10 69 0 80 46 182 87 192 14 4 64 26 112 49 47 23 102 48
121 55 19 7 41 18 48 23 14 11 42 -8 42 -28 0 -6 9 -20 20 -30 17 -16 20 -30
19 -117 -1 -62 3 -104 10 -111 6 -6 12 -7 12 -1 1 5 2 14 3 19 0 6 6 10 11 10
10 0 12 -4 14 -40 1 -15 3 -17 10 -6 6 9 10 4 13 -18 3 -23 1 -31 -11 -32 -17
-2 -52 -6 -88 -12 -13 -2 -26 -6 -29 -10 -4 -4 -15 -7 -24 -7 -31 0 -58 -42
-62 -95 -3 -48 -2 -50 22 -47 30 5 40 13 22 19 -6 3 -10 9 -6 14 3 5 -2 12
-11 15 -12 5 -6 13 27 31 24 14 55 26 69 28 14 1 31 5 38 9 17 11 92 -4 85
-16 -4 -6 0 -14 7 -19 9 -5 -11 -9 -52 -9 -56 0 -70 -4 -93 -25 -35 -32 -35
-82 0 -68 8 3 14 13 14 22 0 20 19 41 37 41 7 0 10 -6 7 -13 -3 -8 2 -20 11
-27 19 -16 20 -40 1 -40 -7 0 -19 -6 -25 -14 -35 -42 89 -46 155 -5 19 12 33
24 30 26 -3 3 6 15 20 25 29 24 40 18 24 -11 -9 -18 -8 -22 7 -28 9 -4 27 -18
39 -32 18 -21 19 -27 8 -39 -8 -7 -14 -16 -14 -20 0 -13 -60 -75 -67 -69 -3 4
-12 2 -19 -4 -9 -7 -19 -7 -33 1 -26 14 -28 -1 -3 -37 9 -15 12 -24 6 -20 -7
4 -15 0 -18 -9 -5 -13 -9 -14 -21 -4 -12 10 -15 9 -15 -9 0 -33 -22 -25 -84
29 -50 44 -59 48 -72 36 -8 -8 -14 -19 -14 -24 0 -15 -56 -35 -79 -27 -18 5
-81 -18 -81 -31 0 -30 101 -49 175 -32 26 6 32 4 43 -19 6 -15 12 -30 12 -34
0 -3 -39 -9 -86 -11 -47 -2 -89 -9 -93 -16 -3 -6 -32 -12 -64 -13 -33 -1 -57
-7 -56 -13 2 -18 97 -98 108 -91 6 3 11 15 11 26 0 14 -9 21 -30 26 -16 3 -30
9 -30 14 0 5 -1 12 -2 16 -2 4 29 6 67 6 111 -2 117 -2 110 -13 -3 -5 -12 -7
-19 -4 -7 3 -16 -2 -19 -10 -4 -10 -19 -16 -37 -16 -19 0 -29 -4 -25 -10 4 -6
10 -8 15 -5 5 3 14 0 22 -7 23 -23 120 -15 158 12 18 13 31 19 29 14 -6 -16
-85 -84 -98 -84 -6 0 -11 -4 -11 -8 0 -13 -83 -57 -99 -53 -13 2 -13 0 -2 -13
26 -31 152 -14 166 21 3 9 0 20 -7 24 -9 6 -5 14 14 31 14 13 31 33 37 46 6
12 19 22 27 22 8 0 13 -4 9 -9 -3 -5 0 -13 6 -16 7 -5 10 17 7 74 -3 72 -1 81
15 81 12 0 18 -9 19 -32 3 -60 -1 -78 -29 -136 -19 -39 -28 -73 -28 -107 0
-61 -16 -81 -97 -124 -67 -35 -136 -48 -167 -32 -11 6 -45 60 -75 120 -29 60
-77 141 -105 181 -28 40 -51 77 -51 82 0 22 -44 98 -50 88 -5 -8 -11 -7 -22 4
-9 8 -19 12 -22 8 -4 -3 -4 1 0 11 3 9 10 15 14 12 11 -7 18 15 12 38 -7 26
-14 21 -46 -32 l-29 -50 -71 -5 c-118 -9 -408 -25 -641 -36 -121 -6 -294 -15
-385 -21 -91 -5 -266 -14 -390 -20 -124 -6 -232 -16 -240 -21 -10 -6 20 -7 85
-4 283 17 457 19 465 6 10 -17 12 -321 2 -336 -4 -6 -89 -16 -197 -24 -104 -7
-221 -16 -260 -20 l-70 -7 72 -1 c67 -2 73 -4 78 -24 2 -13 7 -112 9 -220 3
-144 1 -198 -7 -201 -9 -3 -9 -7 0 -18 6 -8 14 -31 18 -51 6 -32 3 -40 -21
-63 -24 -22 -26 -28 -16 -51 16 -34 17 -33 -23 -27 -23 4 -35 2 -35 -6 0 -6
-9 -11 -20 -11 -11 0 -20 -4 -20 -10 0 -14 34 -12 48 2 10 10 17 10 31 1 12
-8 22 -8 28 -2 7 7 13 -1 17 -25 5 -27 3 -41 -9 -52 -15 -15 -18 -15 -38 2
-12 11 -25 24 -29 29 -12 16 -10 -10 8 -97 9 -44 22 -92 30 -106 8 -16 10 -28
4 -30 -6 -2 -10 -10 -10 -18 0 -25 61 -30 125 -9 15 4 32 -4 64 -34 25 -23 47
-41 50 -41 3 0 12 -4 19 -8 10 -7 10 -13 0 -33 -17 -31 -67 -84 -73 -77 -7 7
5 38 14 38 4 0 16 7 27 16 10 8 13 13 6 9 -7 -4 -20 -1 -28 6 -9 7 -18 8 -23
3 -12 -12 -24 -85 -14 -82 17 4 73 -38 73 -55 0 -14 5 -17 20 -12 26 8 25 0
-2 -27 -16 -16 -20 -17 -15 -5 3 9 2 17 -3 17 -6 0 -10 8 -10 18 0 14 -2 15
-10 2 -8 -12 -10 -10 -11 10 -1 16 -5 10 -11 -20 -11 -50 -37 -74 -83 -77 -56
-4 -248 -33 -253 -38 -13 -13 22 -29 66 -32 26 -1 51 -2 55 -2 5 -1 5 -10 2
-21 -4 -11 -2 -20 4 -20 6 0 11 11 11 24 0 13 7 27 16 30 22 8 21 9 27 -15 6
-24 43 -22 41 2 -1 9 4 16 10 16 6 0 50 9 98 19 92 19 112 16 85 -14 -10 -10
-17 -25 -17 -34 0 -23 -10 -28 -36 -18 -24 9 -24 9 -8 -15 10 -16 14 -34 10
-50 -6 -24 -9 -25 -86 -25 -44 0 -80 4 -80 8 0 4 12 8 27 7 30 0 40 20 23 45
-9 13 -13 12 -30 -8 -18 -22 -21 -22 -36 -8 -18 19 -54 21 -54 4 0 -7 -3 -23
-6 -35 -5 -18 -2 -23 13 -23 12 0 27 -13 39 -36 19 -35 19 -36 0 -50 -17 -12
-18 -17 -8 -39 17 -36 15 -62 -4 -69 -28 -11 -45 13 -38 50 4 20 2 40 -5 48
-15 18 -64 9 -57 -11 4 -8 9 -31 12 -52 9 -59 -11 -68 -158 -71 -19 0 -28 -5
-28 -16 0 -14 8 -16 49 -11 42 5 50 3 50 -11 0 -9 3 -29 7 -44 5 -22 3 -28 -9
-28 -31 0 -27 -19 8 -36 29 -14 35 -21 34 -48 0 -17 -3 -25 -6 -18 -2 6 -11
12 -19 12 -11 0 -12 -4 -4 -19 5 -11 10 -31 10 -44 0 -19 6 -26 31 -31 17 -3
28 -10 25 -15 -4 -5 -1 -11 5 -13 16 -5 -18 -58 -38 -58 -8 0 -24 5 -35 11
l-21 11 21 -35 c26 -41 27 -47 7 -47 -8 0 -15 -7 -15 -16 0 -9 -10 -25 -22
-36 l-23 -19 27 4 c23 3 27 0 30 -29 3 -29 0 -35 -33 -53 -65 -37 -96 -25 -97
38 0 20 -10 43 -24 58 -13 14 -22 37 -23 56 0 28 -4 32 -30 35 -53 6 -91 62
-57 82 16 9 16 9 1 10 -10 0 -17 9 -18 23 -3 89 -15 184 -23 194 -5 7 -8 16
-5 20 3 4 -9 8 -26 8 l-32 0 0 190 0 190 33 10 c17 5 32 15 32 21 0 7 3 20 7
29 5 14 3 16 -13 8 -28 -15 -78 -21 -305 -38 -374 -28 -583 -44 -684 -55 -55
-5 -161 -14 -235 -20 -74 -6 -227 -17 -340 -26 -113 -9 -239 -17 -280 -19 -41
-2 -82 -5 -90 -8 -8 -3 -76 -10 -150 -16 -74 -6 -263 -22 -420 -36 -157 -14
-293 -25 -303 -25 -16 0 -17 -29 -17 -510 1 -539 2 -559 48 -587 31 -19 92
-119 92 -151 0 -17 6 -32 13 -35 9 -3 9 -7 0 -17 -12 -13 -26 12 -48 80 -4 13
-18 35 -31 49 -13 14 -31 40 -39 58 -9 18 -20 35 -25 38 -7 4 -10 -311 -10
-889 0 -706 3 -895 13 -899 9 -4 9 -6 -1 -6 -10 -1 -12 -84 -12 -391 l1 -390
1004 0 c687 0 1006 3 1010 11 5 7 11 7 19 0 8 -7 976 -10 2987 -10 1666 0
2965 4 2954 9 l-20 9 20 1 c11 2 23 2 28 1 4 0 7 4 7 11 0 9 3 9 12 0 10 -10
10 -15 -2 -22 -9 -6 428 -10 1183 -10 l1197 0 0 59 c0 48 -3 60 -17 64 -17 4
-17 5 0 6 16 1 17 63 17 1161 0 1100 -1 1159 -17 1154 -17 -5 -17 -5 0 6 15
10 17 27 16 136 0 71 -5 124 -10 124 -6 0 -4 10 2 22 9 16 9 23 0 26 -6 2 -11
10 -11 18 0 9 5 12 10 9 6 -3 10 5 10 19 0 20 -4 24 -17 20 -17 -5 -17 -5 0 9
15 13 17 32 16 155 -1 135 -2 140 -22 146 l-22 6 23 19 c22 19 31 78 15 95
-11 10 -12 37 -2 30 5 -3 9 9 9 27 0 25 -3 29 -13 21 -10 -8 -17 -7 -29 7 -14
16 -14 19 2 29 13 8 21 7 29 -1 8 -8 11 0 11 30 0 23 -5 44 -12 47 -10 5 -10
7 -1 12 18 8 19 1474 1 1474 -7 0 -74 -7 -148 -15 -74 -9 -179 -20 -234 -25
-112 -11 -144 -24 -46 -18 l65 3 1 -107 2 -107 -27 -5 c-14 -3 -80 -13 -146
-21 -162 -21 -167 -23 -155 -45 15 -28 13 -257 -2 -263 -9 -4 -8 -6 2 -6 12
-1 15 -10 12 -41 -5 -49 -14 -56 -53 -40 -35 15 -48 7 -32 -19 6 -10 8 -22 3
-27 -4 -5 -13 -26 -20 -46 -7 -25 -17 -38 -28 -37 -11 0 -12 2 -4 6 26 10 11
25 -21 20 -44 -7 -67 6 -41 22 17 11 16 11 -6 5 -14 -3 -30 -10 -36 -15 -6 -5
-29 -6 -50 -1 -46 9 -53 33 -32 97 12 35 12 44 -3 70 -14 25 -26 120 -29 223
0 11 -13 13 -52 9 -70 -6 -324 -45 -368 -57 -19 -5 -84 -16 -145 -25 -97 -13
-134 -22 -195 -41 -13 -5 -12 -7 3 -15 9 -6 22 -7 27 -4 6 3 10 1 10 -4 0 -17
-70 -13 -76 3 -4 11 -22 14 -70 11 -36 -1 -68 -5 -71 -9 -3 -3 -17 -6 -30 -6
-18 0 -23 5 -23 28 l-1 27 -27 -33 c-22 -26 -38 -34 -82 -41 -59 -10 -57 -11
-117 68 -18 24 -24 8 -11 -27 11 -29 10 -34 -10 -54 -38 -38 -142 -19 -110 20
11 13 8 14 -23 8 -40 -7 -49 2 -49 50 0 29 -20 32 -27 4 -3 -11 -9 -20 -14
-20 -5 0 -9 -7 -9 -16 0 -10 -5 -14 -15 -10 -9 3 -24 -3 -35 -14 -26 -26 -53
-27 -45 -1 6 19 -7 33 -32 37 -16 3 -16 2 -3 -31 8 -20 7 -27 -6 -32 -22 -8
-46 27 -31 46 9 11 9 15 0 18 -23 8 -14 43 12 53 14 5 25 14 25 20 0 5 7 10
15 10 8 0 15 7 15 15 0 8 17 22 39 31 21 8 44 26 51 39 9 16 24 26 44 29 17 2
112 16 211 30 99 15 194 26 210 26 17 0 61 9 99 20 38 11 72 17 77 15 4 -3 43
1 86 9 170 32 198 36 239 36 24 0 65 5 92 11 27 5 73 9 101 7 l51 -3 -25 -37
c-18 -27 -22 -38 -12 -38 16 0 53 34 79 72 12 19 29 27 64 32 26 3 72 14 102
23 l55 18 -7 229 c-4 126 -10 242 -13 259 -6 28 -7 29 -20 12 -11 -16 -13 -16
-13 -3 0 9 7 19 15 22 13 5 15 25 13 123 -1 65 -7 121 -13 125 -5 4 -120 5
-255 2 -188 -4 -253 -9 -282 -21 -31 -13 -42 -13 -75 -2 -28 10 -99 13 -263
11 -367 -3 -1263 -22 -1288 -28 -18 -4 -21 -8 -12 -23 10 -20 24 -152 40 -406
6 -88 17 -207 24 -265 10 -79 10 -108 2 -117 -9 -10 -26 17 -75 115 -113 226
-138 261 -266 362 l-113 91 -6 77 c-4 42 -10 95 -14 117 l-7 40 -80 0 -79 0
-8 44 c-8 45 3 79 43 130 11 13 19 37 19 54 0 17 14 52 32 80 l32 50 -22 16
c-11 9 -49 33 -84 55 -47 28 -68 49 -83 80 -22 46 -126 121 -181 132 l-31 6
-7 87 c-20 267 -165 519 -361 627 -16 9 -32 20 -35 23 -19 23 -230 92 -275 90
-11 -1 -38 -11 -60 -24z m600 -538 c0 -112 4 -185 10 -189 6 -5 3 -8 -7 -8
-10 0 -18 7 -18 15 0 9 -6 18 -13 21 -11 4 -12 17 -5 62 5 31 8 114 6 184 -3
113 -1 126 12 112 12 -12 15 -48 15 -197z m-1257 152 c-3 -8 -7 -3 -11 10 -4
17 -3 21 5 13 5 -5 8 -16 6 -23z m533 -112 c-8 -8 -11 -3 -11 19 1 25 2 27 11
11 8 -14 8 -22 0 -30z m-391 18 c0 -2 -10 -10 -22 -16 -21 -11 -22 -11 -9 4
13 16 31 23 31 12z m-206 -30 c-4 -8 -8 -15 -10 -15 -2 0 -4 7 -4 15 0 8 4 15
10 15 5 0 7 -7 4 -15z m608 -70 c2 -19 0 -35 -4 -35 -9 0 -10 3 -12 43 -3 40
11 33 16 -8z m88 -142 c0 -3 -7 0 -15 7 -8 7 -15 22 -15 34 0 18 2 17 15 -8 8
-15 15 -31 15 -33z m-691 -37 c-9 -8 -10 -5 -5 14 3 14 6 32 7 40 1 8 4 2 6
-14 3 -16 -1 -34 -8 -40z m1206 -336 c-3 -11 1 -30 11 -45 9 -14 14 -28 11
-31 -3 -3 -15 12 -26 34 -15 29 -17 42 -8 51 16 16 19 14 12 -9z m-35 -9 c0
-6 -4 -13 -10 -16 -5 -3 -10 1 -10 9 0 9 5 16 10 16 6 0 10 -4 10 -9z m7 -113
c-3 -8 -6 -5 -6 6 -1 11 2 17 5 13 3 -3 4 -12 1 -19z m-20 -215 c-3 -10 -5 -2
-5 17 0 19 2 27 5 18 2 -10 2 -26 0 -35z m56 22 c7 -16 -8 -29 -23 -20 -10 6
-2 35 10 35 4 0 10 -7 13 -15z m-33 -74 c0 -6 -4 -13 -10 -16 -5 -3 -10 1 -10
9 0 9 5 16 10 16 6 0 10 -4 10 -9z m-470 -70 c0 -3 -4 -12 -9 -19 -6 -10 -10
-7 -13 11 -4 18 -1 24 9 20 7 -3 13 -8 13 -12z m-600 -93 c0 -6 -3 -8 -7 -5
-3 4 -12 2 -20 -5 -11 -8 -12 -7 -7 6 7 18 34 22 34 4z m-99 -51 c-10 -9 -11
-8 -5 6 3 10 9 15 12 12 3 -3 0 -11 -7 -18z m4402 -31 c31 -24 21 -43 -29 -50
-69 -9 -74 -8 -74 17 0 38 68 60 103 33z m-3728 -34 c20 -23 51 -44 75 -51 36
-11 56 -31 29 -31 -26 0 -53 -50 -26 -50 6 0 0 -12 -15 -25 -16 -13 -28 -31
-28 -40 0 -13 -3 -12 -17 3 -64 64 -132 171 -133 209 0 11 22 18 63 22 9 0 33
-16 52 -37z m3422 1 c9 -13 14 -25 12 -27 -2 -1 -28 -8 -57 -14 -58 -13 -87
-4 -98 31 -8 24 -2 29 43 36 54 9 82 2 100 -26z m-267 2 c8 -5 7 -11 -1 -21
-24 -29 -149 -14 -149 18 0 24 114 25 150 3z m590 -35 c0 -5 -10 -10 -22 -10
-19 0 -20 2 -8 10 19 13 30 13 30 0z m-75 -10 c3 -5 -1 -10 -10 -10 -9 0 -13
5 -10 10 3 6 8 10 10 10 2 0 7 -4 10 -10z m36 -127 c-3 -20 -11 -38 -17 -40
-15 -5 -23 50 -9 65 21 23 32 13 26 -25z m-4051 3 c0 -2 -7 -7 -16 -10 -8 -3
-12 -2 -9 4 6 10 25 14 25 6z m3878 -59 c2 -9 -1 -17 -7 -17 -6 0 -11 6 -11
14 0 8 -6 17 -12 20 -7 3 -4 5 7 3 11 -1 21 -10 23 -20z m122 3 c24 -8 24 -8
3 -9 -15 -1 -23 -8 -24 -18 0 -14 -3 -12 -10 5 -5 13 -13 20 -19 17 -5 -3 -10
-1 -10 4 0 12 23 13 60 1z m-4663 -42 c-3 -8 -6 -5 -6 6 -1 11 2 17 5 13 3 -3
4 -12 1 -19z m1055 -96 c12 -5 15 -11 8 -21 -7 -12 -11 -12 -24 -2 -29 24 -20
37 16 23z m3178 -83 c0 -5 -3 -8 -7 -8 -21 3 -33 -2 -33 -16 0 -8 -9 -19 -20
-25 -30 -16 -26 11 6 43 23 24 54 27 54 6z m-2949 -87 c-57 -81 -139 -194
-225 -307 -8 -11 -15 -15 -16 -9 0 6 39 65 88 130 106 144 127 177 124 187 -1
5 2 6 7 3 5 -4 13 4 17 16 5 18 58 75 71 78 2 0 -28 -44 -66 -98z m1928 57 c7
-16 10 -33 7 -37 -10 -9 -59 45 -52 57 13 20 31 12 45 -20z m841 -7 c0 -9 -40
-35 -46 -29 -3 2 -2 12 2 21 6 16 44 23 44 8z m-4260 -28 c0 -8 -5 -12 -10 -9
-6 4 -8 11 -5 16 9 14 15 11 15 -7z m-650 -4 c11 -7 12 -14 4 -27 -15 -24 -64
-36 -71 -17 -3 8 -14 14 -24 14 -31 0 -10 28 24 33 18 2 37 4 42 5 6 1 17 -3
25 -8z m-240 -35 c0 -8 -4 -15 -10 -15 -5 0 -10 7 -10 15 0 8 5 15 10 15 6 0
10 -7 10 -15z m897 -37 c-3 -8 -6 -5 -6 6 -1 11 2 17 5 13 3 -3 4 -12 1 -19z
m3573 -18 c0 -5 -4 -10 -10 -10 -5 0 -10 5 -10 10 0 6 5 10 10 10 6 0 10 -4
10 -10z m-2443 -72 c-3 -8 -6 -5 -6 6 -1 11 2 17 5 13 3 -3 4 -12 1 -19z
m-1197 -25 c-11 -17 -11 -17 -6 0 3 10 6 24 7 30 0 9 2 9 5 0 3 -7 0 -20 -6
-30z m3210 -3 c0 -5 16 -10 36 -12 32 -3 34 -4 21 -22 -12 -17 -14 -17 -30 -2
-9 10 -26 19 -37 21 -32 6 -44 16 -29 25 14 9 39 2 39 -10z m2370 -79 c0 -11
-29 -35 -35 -29 -10 9 7 38 21 38 8 0 14 -4 14 -9z m460 -15 c0 -14 -29 -31
-38 -22 -2 3 -2 12 1 21 8 19 37 20 37 1z m-6120 -36 c-6 -11 -16 -20 -22 -20
-6 0 -3 9 7 20 10 11 20 20 22 20 2 0 -1 -9 -7 -20z m3453 -3 c2 -6 -1 -18 -8
-24 -10 -10 -14 -9 -19 3 -4 10 -2 13 6 8 8 -5 9 -2 5 9 -3 10 -2 17 2 17 5 0
11 -6 14 -13z m1235 6 c-10 -2 -18 -8 -18 -13 0 -4 -6 -10 -13 -13 -8 -3 -13
3 -13 14 0 15 7 19 31 18 16 -1 22 -3 13 -6z m942 -8 c0 -9 -6 -12 -15 -9 -8
4 -15 10 -15 15 0 5 7 9 15 9 8 0 15 -7 15 -15z m-6295 -65 l6 -25 -20 25
c-11 13 -17 28 -14 33 7 12 19 -3 28 -33z m6409 34 c22 -8 20 -31 -3 -44 -30
-16 -41 -12 -41 13 0 35 12 43 44 31z m-1264 -14 c0 -13 -11 -13 -30 0 -12 8
-11 10 8 10 12 0 22 -4 22 -10z m160 -4 c0 -16 -18 -31 -27 -22 -8 8 5 36 17
36 5 0 10 -6 10 -14z m-4690 -10 c0 -3 -4 -8 -10 -11 -5 -3 -10 -1 -10 4 0 6
5 11 10 11 6 0 10 -2 10 -4z m4540 -37 c0 -10 -7 -19 -15 -19 -8 0 -15 5 -15
10 0 6 5 10 11 10 6 0 8 7 5 16 -3 8 -2 12 4 9 6 -3 10 -15 10 -26z m1148 1
c-2 -6 -8 -6 -18 0 -13 9 -13 11 0 20 15 10 25 0 18 -20z m-6038 0 c0 -13 -7
-20 -20 -20 -23 0 -26 10 -8 28 18 18 28 15 28 -8z m311 -27 c-8 -15 -10 -15
-11 -2 0 17 10 32 18 25 2 -3 -1 -13 -7 -23z m-416 -21 c0 -41 -40 -87 -51
-58 -3 9 -16 16 -28 16 -40 0 -61 11 -74 38 -6 14 -12 30 -12 34 0 4 37 7 83
6 l82 -3 0 -33z m5127 -19 c-21 -18 -36 5 -16 24 8 8 14 20 15 26 1 7 4 1 9
-13 5 -18 3 -29 -8 -37z m1098 48 c0 -6 -4 -13 -10 -16 -5 -3 -10 1 -10 9 0 9
5 16 10 16 6 0 10 -4 10 -9z m-5846 -40 c-10 -10 -21 -17 -23 -15 -6 6 20 34
32 34 6 0 2 -8 -9 -19z m-274 -11 c0 -11 -6 -20 -14 -20 -7 0 -16 9 -19 20 -4
15 0 20 14 20 12 0 19 -7 19 -20z m1731 -3 c-10 -9 -11 -8 -5 6 3 10 9 15 12
12 3 -3 0 -11 -7 -18z m-1501 -14 c-8 -3 -25 -15 -37 -26 -13 -11 -26 -17 -30
-12 -5 4 -3 10 3 12 6 2 20 10 30 18 10 8 26 14 34 14 13 -1 13 -1 0 -6z
m1426 -63 c-33 -65 -33 -77 -1 -25 13 22 24 33 25 25 0 -12 -57 -112 -130
-227 -46 -72 -54 13 -9 92 17 30 36 55 42 55 7 0 30 34 52 75 44 83 62 86 21
5z m3588 24 c9 -24 7 -31 -11 -38 -18 -7 -33 9 -33 37 0 22 36 23 44 1z
m-1494 -14 c0 -5 -7 -10 -16 -10 -8 0 -12 5 -9 10 3 6 10 10 16 10 5 0 9 -4 9
-10z m-3730 -9 c0 -6 -4 -13 -10 -16 -5 -3 -10 1 -10 9 0 9 5 16 10 16 6 0 10
-4 10 -9z m5 -71 c4 -17 11 -28 16 -24 15 9 10 -53 -6 -66 -13 -11 -15 -6 -15
33 0 25 -4 49 -10 52 -13 8 -13 35 -1 35 5 0 12 -14 16 -30z m730 15 c59 -9
123 -23 142 -31 31 -16 60 -49 55 -66 -1 -5 2 -8 7 -8 4 0 8 -12 7 -27 -1 -16
9 -48 21 -72 20 -37 21 -45 9 -55 -13 -10 -13 -17 1 -55 15 -43 14 -44 -11
-66 -27 -23 -34 -45 -15 -45 5 0 7 -5 4 -10 -4 -6 -10 -8 -15 -5 -5 3 -11 -8
-15 -24 -4 -20 -11 -28 -21 -24 -9 3 -14 -2 -14 -14 0 -11 -13 -33 -30 -49
-16 -16 -30 -34 -30 -40 0 -6 -11 -21 -25 -34 -14 -13 -25 -31 -24 -40 2 -8
-3 -35 -11 -60 -7 -25 -12 -58 -12 -75 1 -16 -4 -59 -10 -95 -5 -36 -12 -78
-14 -94 -2 -16 -10 -39 -18 -51 -8 -12 -20 -56 -27 -98 -8 -50 -17 -77 -26
-77 -8 0 -14 -14 -15 -37 -1 -21 -2 -46 -2 -56 -1 -10 -6 -21 -12 -25 -5 -4
-9 -19 -9 -33 1 -18 -3 -25 -12 -22 -8 3 -13 2 -12 -3 3 -16 -13 -74 -22 -80
-5 -3 -9 -14 -9 -25 0 -11 -7 -22 -15 -25 -9 -4 -14 -11 -13 -18 4 -18 -21
-56 -37 -56 -20 0 -30 -21 -14 -31 8 -5 9 -9 3 -9 -7 0 -14 -9 -17 -20 -3 -13
-10 -18 -21 -14 -12 4 -16 0 -16 -15 0 -12 -7 -24 -15 -27 -8 -3 -17 -21 -21
-40 -3 -18 -12 -38 -20 -45 -18 -14 -18 -27 1 -62 26 -50 25 -97 -4 -169 -27
-66 -27 -66 -39 -40 -7 15 -19 38 -27 52 -10 18 -11 28 -3 38 8 9 8 16 0 24
-12 12 -64 -2 -69 -19 -2 -6 16 -34 41 -61 52 -59 60 -80 46 -116 -5 -15 -10
-36 -10 -47 0 -19 5 -19 63 -13 34 4 69 13 77 21 8 7 47 35 87 61 95 62 195
151 244 218 25 34 49 56 67 60 34 8 52 22 52 41 0 10 -6 8 -22 -7 -58 -54 -5
44 85 155 13 17 50 71 81 122 53 86 89 148 326 558 51 88 98 167 105 175 13
16 110 178 116 195 8 22 71 123 109 175 21 30 73 105 115 166 88 132 156 203
222 234 118 55 269 48 318 -16 14 -18 25 -37 25 -43 0 -5 15 -17 33 -26 17 -9
45 -32 60 -51 24 -28 29 -45 31 -96 2 -36 8 -64 14 -66 16 -5 15 -33 0 -30 -7
2 -13 -6 -13 -16 0 -26 -49 -40 -66 -20 -15 18 -28 18 -71 -3 -58 -29 -78 -62
-81 -136 -1 -36 -5 -63 -8 -61 -9 5 -39 -42 -39 -61 0 -18 -16 -20 -24 -2 -3
6 -3 0 0 -14 3 -15 1 -30 -5 -34 -6 -3 -21 -27 -32 -53 -29 -64 -40 -77 -51
-60 -7 9 -8 4 -4 -13 4 -18 1 -29 -8 -32 -7 -3 -17 -22 -20 -42 -4 -20 -14
-39 -22 -42 -7 -3 -15 -19 -15 -37 l-1 -31 -8 30 c-6 22 -8 24 -9 9 -2 -37
-31 -82 -56 -88 -19 -5 -25 -13 -25 -35 0 -21 -6 -30 -21 -34 -12 -3 -18 -10
-15 -16 8 -12 -75 -81 -98 -81 -10 0 -14 -4 -11 -10 3 -5 -3 -10 -13 -10 -14
0 -21 -9 -25 -30 -4 -18 -13 -30 -22 -30 -8 0 -15 -9 -15 -21 0 -11 -4 -18 -9
-14 -5 3 -12 -4 -16 -15 -3 -11 -12 -20 -20 -20 -8 0 -17 -9 -20 -21 -4 -11
-13 -18 -20 -15 -9 3 -11 -2 -8 -15 3 -10 0 -19 -6 -19 -6 0 -11 -7 -11 -16 0
-11 -6 -14 -20 -9 -15 5 -20 2 -20 -13 0 -22 -60 -80 -78 -74 -7 2 -12 -6 -12
-22 0 -14 -6 -29 -13 -33 -8 -4 -17 -15 -21 -23 -19 -41 -56 -93 -56 -80 0 13
-2 13 -9 1 -5 -8 -7 -20 -5 -26 3 -7 -5 -15 -16 -18 -12 -3 -19 -10 -15 -16 5
-10 -15 -16 -38 -12 -5 1 3 -13 16 -31 36 -48 79 -147 84 -193 5 -39 3 -41
-76 -113 -45 -40 -81 -69 -81 -63 0 6 -7 11 -16 11 -21 0 -9 38 20 62 l21 17
-30 1 c-65 0 -88 -40 -64 -109 11 -31 9 -35 -20 -62 -18 -16 -37 -29 -43 -29
-20 0 -123 -115 -146 -162 -13 -26 -36 -58 -51 -71 -15 -13 -30 -30 -33 -37
-3 -10 -21 1 -59 36 -53 50 -55 51 -86 38 -27 -11 -32 -11 -37 2 -4 10 6 22
29 35 41 24 41 27 16 78 -29 55 -46 67 -78 52 -23 -10 -24 -13 -10 -24 11 -8
15 -20 10 -35 -5 -21 -10 -23 -40 -17 -24 4 -33 3 -28 -4 6 -10 -16 -41 -29
-41 -4 0 -24 11 -46 25 -40 25 -76 34 -65 15 3 -5 14 -10 24 -10 10 0 26 -8
35 -19 15 -16 15 -19 2 -24 -10 -4 -13 -13 -10 -24 4 -11 3 -14 -3 -7 -15 20
-74 45 -96 41 -19 -3 -18 -5 11 -17 29 -11 33 -16 27 -39 -4 -14 -11 -29 -17
-32 -8 -5 -6 -13 6 -24 16 -16 18 -16 35 -1 10 9 21 16 25 16 4 0 21 9 37 21
16 11 35 19 41 17 6 -2 -6 -15 -28 -28 -21 -13 -43 -29 -49 -35 -5 -6 -27 -24
-48 -39 -67 -49 -32 -39 48 14 43 28 89 53 102 56 12 4 23 10 23 15 0 18 52 9
57 -9 2 -10 17 -23 33 -29 21 -8 37 -27 57 -69 32 -66 41 -76 66 -70 10 2 22
-4 28 -16 6 -11 9 -20 7 -21 -2 -1 -13 -7 -25 -14 -17 -10 -24 -9 -32 1 -6 7
-8 16 -4 19 3 4 0 7 -7 7 -7 0 -35 20 -62 46 l-48 45 -59 -31 c-33 -18 -68
-40 -78 -49 -10 -10 -27 -23 -38 -30 -18 -11 -17 -11 10 -7 41 8 112 7 159 0
58 -10 24 -24 -59 -24 -60 -1 -68 -2 -52 -14 9 -7 17 -18 17 -25 0 -6 7 -11
16 -11 8 0 12 -5 8 -11 -3 -6 -14 -9 -24 -6 -12 3 -17 0 -14 -8 3 -7 -2 -15
-12 -19 -12 -5 -15 -2 -10 11 4 9 1 20 -6 25 -19 12 -28 10 -28 -7 0 -8 5 -15
10 -15 18 0 11 -20 -7 -21 -15 0 -14 -2 4 -11 17 -8 25 -7 37 5 18 18 184 72
193 63 4 -3 0 -6 -7 -6 -7 0 -50 -18 -95 -40 -77 -38 -200 -70 -248 -65 -12 2
-60 6 -107 9 -144 12 -251 26 -352 46 -96 20 -125 24 -117 16 7 -8 232 -56
339 -72 153 -24 360 -24 430 0 30 10 67 27 82 38 54 38 211 77 193 48 -3 -5
-14 -10 -25 -10 -10 0 -21 -7 -24 -16 -4 -11 -13 -14 -29 -10 -32 8 -118 -25
-169 -66 -24 -18 -44 -36 -46 -40 -2 -5 -10 -8 -18 -8 -8 0 -17 -7 -21 -16 -4
-10 -13 -14 -29 -10 -16 4 -27 0 -36 -13 -9 -13 -26 -19 -56 -19 -36 -1 -41 2
-32 13 9 11 5 14 -22 13 -44 -1 -64 5 -86 25 -26 24 -84 23 -80 -1 2 -12 -3
-16 -19 -14 -14 2 -26 -4 -33 -17 -8 -16 -19 -20 -43 -18 -23 1 -32 -2 -31
-13 1 -13 -11 -13 -110 1 -61 9 -133 21 -161 27 -27 6 -70 13 -95 14 l-45 4
-3 57 c-2 31 -7 57 -12 57 -6 0 -10 -8 -11 -17 0 -15 -2 -15 -9 2 -5 11 -9 15
-9 9 -2 -24 -55 -35 -160 -32 -58 1 -171 2 -251 2 -138 1 -148 0 -200 -26 -30
-15 -59 -23 -63 -19 -10 10 -11 89 -2 133 8 35 40 67 67 68 9 0 21 6 25 13 4
6 28 22 53 35 25 12 65 33 89 46 l45 24 -38 16 c-21 9 -43 13 -49 9 -6 -3 -7
-1 -3 5 12 19 -5 62 -24 62 -11 0 -21 4 -24 9 -3 4 5 6 18 4 17 -4 27 3 41 24
32 49 90 81 202 111 64 17 123 55 123 80 0 6 25 40 55 75 47 55 63 67 96 72
31 5 45 15 65 44 24 37 54 161 54 224 0 16 6 53 14 81 32 111 46 177 70 326
63 387 130 598 293 922 62 121 69 146 61 193 -2 14 3 21 17 23 12 2 29 21 41
45 71 142 128 240 156 270 36 39 97 72 155 86 21 5 38 9 39 10 0 1 49 -6 109
-14z m-921 -24 c8 -13 -9 -28 -39 -35 -27 -6 -28 -5 -12 8 12 9 14 16 8 21 -6
3 -11 10 -11 14 0 9 48 2 54 -8z m1930 -109 c-4 -34 -11 -62 -16 -62 -6 0 -7
7 -4 16 3 9 6 41 6 72 0 37 3 53 10 46 6 -6 8 -35 4 -72z m4116 3 c0 -16 -34
-38 -43 -28 -10 9 12 43 28 43 8 0 15 -7 15 -15z m-5840 -15 c0 -11 -2 -20 -4
-20 -2 0 -6 9 -9 20 -3 11 -1 20 4 20 5 0 9 -9 9 -20z m-240 -10 c0 -6 -18
-10 -41 -10 -22 0 -38 4 -35 8 7 12 76 13 76 2z m4405 0 c3 -5 -1 -10 -9 -10
-8 0 -18 5 -21 10 -3 6 1 10 9 10 8 0 18 -4 21 -10z m-2497 -83 c2 -42 -1 -67
-8 -67 -6 0 -10 23 -10 54 0 30 -3 62 -7 72 -4 12 -2 15 8 12 10 -3 15 -25 17
-71z m2762 29 c0 -8 -10 -18 -22 -22 -13 -4 -28 -14 -35 -23 -8 -11 -15 -13
-23 -5 -8 8 -3 18 16 37 29 29 64 36 64 13z m210 -86 c0 -5 -4 -10 -10 -10 -5
0 -10 5 -10 10 0 6 5 10 10 10 6 0 10 -4 10 -10z m-6110 -35 c-7 -8 -17 -12
-22 -9 -5 3 -1 12 9 19 22 17 30 11 13 -10z m5915 5 c3 -6 -1 -13 -10 -16 -19
-8 -30 0 -20 15 8 14 22 14 30 1z m75 -10 c0 -5 -5 -10 -11 -10 -5 0 -7 5 -4
10 3 6 8 10 11 10 2 0 4 -4 4 -10z m-6620 -59 c0 -6 -5 -13 -10 -16 -6 -4 -8
-10 -5 -15 3 -4 -2 -13 -10 -20 -8 -7 -15 -21 -15 -31 0 -11 -7 -19 -15 -19
-23 0 -18 25 13 69 26 39 42 51 42 32z m1728 3 c19 -6 34 -26 15 -22 -12 2
-47 -14 -55 -26 -4 -6 -15 0 -26 15 -28 34 3 50 66 33z m-1125 -54 c7 0 3 -7
-7 -15 -21 -16 -36 -11 -36 12 0 10 6 13 16 9 9 -3 21 -6 27 -6z m-1590 -60
c6 -35 6 -35 -8 -10 -8 14 -14 34 -15 45 0 30 17 5 23 -35z m937 -23 c0 -7 -7
-22 -15 -33 -14 -18 -14 -17 -15 14 0 22 5 32 15 32 8 0 15 -6 15 -13z m-901
-136 c2 -63 -20 -18 -25 50 l-4 64 14 -40 c8 -22 15 -56 15 -74z m9611 99 c0
-13 -28 -25 -38 -16 -3 4 0 11 8 16 20 13 30 12 30 0z m-395 -30 c3 -5 -1 -10
-9 -10 -9 0 -16 5 -16 10 0 6 4 10 9 10 6 0 13 -4 16 -10z m-360 -19 c-3 -6
-11 -11 -17 -11 -6 0 -6 6 2 15 14 17 26 13 15 -4z m98 12 c-7 -2 -19 -2 -25
0 -7 3 -2 5 12 5 14 0 19 -2 13 -5z m-8083 -17 c0 -8 -4 -17 -9 -20 -5 -3 -7
-15 -4 -25 6 -24 -12 -35 -34 -22 -17 10 -17 10 0 11 10 0 17 8 17 19 0 26 10
51 21 51 5 0 9 -6 9 -14z m8540 0 c0 -7 -9 -16 -20 -19 -25 -6 -26 1 -2 19 22
17 22 17 22 0z m-330 0 c0 -3 -4 -8 -10 -11 -5 -3 -10 -1 -10 4 0 6 5 11 10
11 6 0 10 -2 10 -4z m384 -21 c3 -9 16 -20 28 -25 16 -6 18 -9 6 -9 -9 -1 -23
-4 -31 -7 -8 -3 -17 2 -21 13 -3 10 -9 24 -12 31 -3 6 1 12 9 12 8 0 17 -7 21
-15z m174 10 c-11 -11 -68 -23 -68 -15 0 5 6 11 13 13 16 7 62 8 55 2z m-7083
-15 c3 -5 1 -10 -4 -10 -6 0 -11 5 -11 10 0 6 2 10 4 10 3 0 8 -4 11 -10z
m-74 -20 c6 0 8 -4 4 -9 -8 -15 -45 -9 -45 7 0 9 6 12 16 8 9 -3 20 -6 25 -6z
m6393 -15 c4 -10 -1 -15 -14 -15 -20 0 -26 11 -13 23 10 11 20 8 27 -8z m536
5 c0 -5 -5 -10 -11 -10 -5 0 -7 5 -4 10 3 6 8 10 11 10 2 0 4 -4 4 -10z m205
0 c-3 -5 -11 -10 -16 -10 -6 0 -7 5 -4 10 3 6 11 10 16 10 6 0 7 -4 4 -10z
m-57 -11 c-2 -6 -8 -10 -13 -10 -5 0 -11 4 -13 10 -2 6 4 11 13 11 9 0 15 -5
13 -11z m-8413 -9 c3 -5 1 -10 -4 -10 -6 0 -11 5 -11 10 0 6 2 10 4 10 3 0 8
-4 11 -10z m55 0 c0 -5 -7 -10 -15 -10 -8 0 -15 5 -15 10 0 6 7 10 15 10 8 0
15 -4 15 -10z m-81 -39 c-15 -5 -22 6 -14 19 6 9 10 9 16 -1 5 -8 4 -15 -2
-18z m906 -11 c-5 -32 -3 -41 9 -46 13 -5 14 -9 5 -20 -14 -16 -45 -18 -54 -4
-11 18 15 110 32 110 12 0 13 -8 8 -40z m6320 30 c-3 -5 -11 -10 -16 -10 -6 0
-7 5 -4 10 3 6 11 10 16 10 6 0 7 -4 4 -10z m973 -7 c-3 -19 -27 -34 -42 -25
-5 3 2 13 15 23 30 23 31 23 27 2z m127 -3 c-28 -12 -37 -12 -30 0 3 6 16 10
28 9 21 0 21 -1 2 -9z m-8730 -11 c11 -17 -1 -21 -15 -4 -8 9 -8 15 -2 15 6 0
14 -5 17 -11z m8305 -9 c0 -5 -7 -10 -15 -10 -8 0 -15 5 -15 10 0 6 7 10 15
10 8 0 15 -4 15 -10z m-7980 -10 c0 -5 -7 -10 -16 -10 -8 0 -12 5 -9 10 3 6
10 10 16 10 5 0 9 -4 9 -10z m8136 3 c-10 -10 -46 -11 -40 -1 3 4 15 8 26 8
12 0 18 -3 14 -7z m231 1 c-3 -3 -12 -4 -19 -1 -8 3 -5 6 6 6 11 1 17 -2 13
-5z m173 -26 c13 5 13 3 0 -12 -8 -11 -16 -14 -18 -7 -2 6 -12 11 -22 11 -16
0 -17 -3 -7 -24 9 -19 16 -22 29 -15 10 6 19 5 23 -1 3 -5 1 -10 -4 -10 -6 0
-10 -6 -8 -12 1 -8 -10 -14 -27 -16 -19 -3 -26 0 -21 8 5 8 -3 10 -26 8 -24
-2 -37 -10 -44 -25 -14 -32 -25 -29 -25 7 0 23 6 33 25 40 14 5 25 13 24 17
-4 24 4 33 26 33 17 0 25 6 25 18 1 15 3 15 18 -4 10 -11 24 -18 32 -16z
m-8699 7 c-1 -15 -24 -12 -29 3 -3 9 2 13 12 10 10 -1 17 -7 17 -13z m214 5
c10 -16 -4 -49 -27 -61 -29 -16 -34 -4 -12 36 19 36 28 42 39 25z m8255 6 c0
-3 -4 -8 -10 -11 -5 -3 -10 -1 -10 4 0 6 5 11 10 11 6 0 10 -2 10 -4z m-615
-16 c3 -5 -1 -10 -10 -10 -9 0 -13 5 -10 10 3 6 8 10 10 10 2 0 7 -4 10 -10z
m238 3 c-7 -2 -21 -2 -30 0 -10 3 -4 5 12 5 17 0 24 -2 18 -5z m340 -8 c1 -5
-6 -11 -15 -13 -11 -2 -18 3 -18 13 0 17 30 18 33 0z m-453 -5 c-8 -5 -22 -9
-30 -9 -10 0 -8 3 5 9 27 12 43 12 25 0z m310 1 c0 -13 -28 -22 -35 -11 -3 4
1 11 7 13 20 8 28 8 28 -2z m223 -16 c-3 -13 -53 -20 -53 -7 0 15 13 23 35 20
11 -2 19 -7 18 -13z m52 5 c3 -5 1 -10 -4 -10 -6 0 -11 5 -11 10 0 6 2 10 4
10 3 0 8 -4 11 -10z m-650 -36 c-18 -13 -45 -19 -45 -10 0 22 14 32 37 28 25
-5 25 -6 8 -18z m460 16 c-3 -5 -10 -10 -16 -10 -5 0 -9 5 -9 10 0 6 7 10 16
10 8 0 12 -4 9 -10z m-115 -10 c0 -5 -5 -10 -11 -10 -5 0 -7 5 -4 10 3 6 8 10
11 10 2 0 4 -4 4 -10z m-1415 -10 c-3 -5 -16 -10 -28 -9 -21 0 -21 1 -2 9 28
12 37 12 30 0z m694 1 c7 -5 10 -14 7 -20 -10 -16 -26 -14 -26 3 0 8 -8 17
-17 19 -15 4 -15 5 2 6 11 0 26 -3 34 -8z m166 -1 c-3 -5 -10 -10 -16 -10 -5
0 -9 5 -9 10 0 6 7 10 16 10 8 0 12 -4 9 -10z m719 -5 c-4 -8 -8 -15 -10 -15
-2 0 -4 7 -4 15 0 8 4 15 10 15 5 0 7 -7 4 -15z m-684 -25 c-20 -12 -32 -2
-17 15 8 8 16 10 22 4 6 -7 5 -13 -5 -19z m-6599 2 c-7 -2 -18 1 -23 6 -8 8
-4 9 13 5 13 -4 18 -8 10 -11z m6859 8 c0 -10 -36 -50 -45 -50 -3 0 -5 7 -5
15 0 8 -9 15 -21 15 -11 0 -17 5 -14 10 4 6 10 8 15 5 4 -3 19 -1 32 4 31 13
38 13 38 1z m-7844 -29 c-8 -9 -14 -31 -14 -48 1 -30 3 -32 26 -26 21 5 24 3
19 -11 -4 -10 -7 -22 -7 -27 0 -5 -10 -8 -22 -6 -23 2 -33 -22 -14 -35 7 -5 6
-18 -2 -41 -7 -18 -12 -46 -12 -61 0 -15 -4 -25 -10 -21 -5 3 -7 25 -3 50 3
27 1 56 -7 75 -10 25 -10 34 2 52 9 14 13 36 10 56 -5 34 21 77 40 66 5 -3 3
-13 -6 -23z m6864 19 c0 -5 -5 -10 -11 -10 -5 0 -7 5 -4 10 3 6 8 10 11 10 2
0 4 -4 4 -10z m625 0 c8 -13 -5 -13 -25 0 -13 8 -13 10 2 10 9 0 20 -4 23 -10z
m35 0 c0 -5 -4 -10 -10 -10 -5 0 -10 5 -10 10 0 6 5 10 10 10 6 0 10 -4 10
-10z m505 -10 c-10 -11 -22 -17 -26 -14 -12 7 12 33 30 34 11 0 10 -5 -4 -20z
m105 11 c0 -10 -36 -21 -65 -20 -16 0 -13 4 10 14 35 16 55 19 55 6z m-1360
-11 c0 -5 -8 -10 -17 -10 -15 0 -16 2 -3 10 19 12 20 12 20 0z m940 -2 c0 -18
-43 -36 -66 -27 -19 7 -19 7 1 14 11 3 27 10 35 15 21 13 30 12 30 -2z m504
-3 c-4 -8 -12 -15 -20 -15 -20 0 -17 18 4 23 9 3 18 5 19 6 1 0 0 -6 -3 -14z
m-814 -15 c0 -5 -7 -10 -15 -10 -8 0 -15 5 -15 10 0 6 7 10 15 10 8 0 15 -4
15 -10z m147 -23 c-25 -9 -33 -2 -18 17 10 12 16 13 26 3 10 -10 9 -13 -8 -20z
m381 24 c9 -5 3 -8 -17 -9 -17 0 -31 4 -31 9 0 11 30 12 48 0z m-1228 -16 c-7
-8 -17 -15 -22 -15 -11 0 14 29 26 30 5 0 3 -7 -4 -15z m791 0 c0 -5 -5 -11
-13 -13 -10 -3 -10 -1 1 6 11 8 10 11 -5 15 -16 5 -16 6 -1 4 10 -1 18 -6 18
-12z m129 6 c0 -5 -7 -11 -15 -15 -15 -5 -20 5 -8 17 9 10 23 9 23 -2z m470
-12 c0 -14 -37 -10 -43 4 -4 10 2 13 19 9 13 -2 24 -8 24 -13z m160 17 c0 -11
-19 -15 -25 -6 -3 5 1 10 9 10 9 0 16 -2 16 -4z m315 -18 c-1 -13 -8 -23 -16
-23 -8 -1 -24 -6 -36 -13 -13 -7 -24 -8 -28 -3 -6 11 25 31 49 31 19 0 21 16
4 23 -7 3 -4 6 8 6 15 1 20 -5 19 -21z m-537 -10 c3 -15 -6 -17 -60 -17 -62 1
-63 1 -34 16 23 12 30 13 37 2 6 -11 9 -10 15 4 8 22 38 18 42 -5z m127 12
c-3 -5 -10 -10 -16 -10 -5 0 -9 5 -9 10 0 6 7 10 16 10 8 0 12 -4 9 -10z
m-9775 -4 c0 -3 -4 -8 -10 -11 -5 -3 -10 -1 -10 4 0 6 5 11 10 11 6 0 10 -2
10 -4z m9259 -22 c-13 -15 -11 -17 19 -12 39 6 53 -13 29 -37 -16 -15 -51 -10
-41 6 10 16 -27 22 -52 9 -13 -8 -27 -11 -30 -8 -10 10 19 47 41 51 45 9 49 8
34 -9z m96 6 c3 -5 1 -10 -4 -10 -6 0 -11 5 -11 10 0 6 2 10 4 10 3 0 8 -4 11
-10z m465 2 c0 -40 -71 -56 -78 -18 -3 12 1 17 10 13 7 -2 12 -10 11 -16 -2
-6 2 -11 7 -11 6 0 10 6 10 14 0 8 6 17 13 19 19 8 27 8 27 -1z m225 -2 c3 -5
2 -10 -4 -10 -5 0 -13 5 -16 10 -3 6 -2 10 4 10 5 0 13 -4 16 -10z m-605 -10
c0 -5 -7 -10 -16 -10 -8 0 -12 5 -9 10 3 6 10 10 16 10 5 0 9 -4 9 -10z m513
3 c-7 -2 -21 -2 -30 0 -10 3 -4 5 12 5 17 0 24 -2 18 -5z m-8414 -33 c-7 -19
-18 -30 -30 -30 -19 0 -19 1 1 22 11 12 20 25 20 30 0 4 4 8 9 8 6 0 6 -12 0
-30z m7351 20 c0 -5 -4 -10 -10 -10 -5 0 -10 5 -10 10 0 6 5 10 10 10 6 0 10
-4 10 -10z m174 -5 c-3 -8 -16 -17 -27 -21 -22 -7 -22 -7 -2 -15 13 -5 15 -8
5 -8 -8 0 -21 3 -29 8 -19 12 0 38 32 44 12 2 23 5 24 6 1 0 0 -6 -3 -14z
m646 5 c0 -5 -9 -10 -20 -10 -11 0 -20 5 -20 10 0 6 9 10 20 10 11 0 20 -4 20
-10z m-8250 -45 c-7 -8 -22 -15 -33 -15 -19 0 -18 2 9 31 23 24 30 27 32 14 2
-9 -2 -22 -8 -30z m220 35 c0 -5 -5 -10 -11 -10 -5 0 -7 5 -4 10 3 6 8 10 11
10 2 0 4 -4 4 -10z m7940 6 c0 -2 -7 -6 -15 -10 -8 -3 -15 -1 -15 4 0 6 7 10
15 10 8 0 15 -2 15 -4z m-7010 -21 c0 -8 -4 -15 -10 -15 -5 0 -10 7 -10 15 0
8 5 15 10 15 6 0 10 -7 10 -15z m6890 5 c0 -5 -7 -10 -15 -10 -8 0 -14 -5 -12
-12 3 -16 -32 -23 -47 -8 -6 6 -6 11 -1 10 21 -4 36 0 30 9 -3 5 5 12 17 14
13 2 24 5 26 6 1 0 2 -3 2 -9z m-6030 -10 c0 -5 -9 -10 -19 -10 -11 0 -23 5
-26 10 -4 6 5 10 19 10 14 0 26 -4 26 -10z m5038 -1 c-2 -6 -8 -10 -13 -10 -5
0 -11 4 -13 10 -2 6 4 11 13 11 9 0 15 -5 13 -11z m75 4 c-7 -2 -19 -2 -25 0
-7 3 -2 5 12 5 14 0 19 -2 13 -5z m517 -3 c0 -5 -4 -10 -10 -10 -5 0 -10 5
-10 10 0 6 5 10 10 10 6 0 10 -4 10 -10z m960 0 c0 -5 -4 -10 -10 -10 -5 0
-10 5 -10 10 0 6 5 10 10 10 6 0 10 -4 10 -10z m-1160 -10 c0 -5 -4 -10 -9
-10 -6 0 -13 5 -16 10 -3 6 1 10 9 10 9 0 16 -4 16 -10z m820 0 c0 -5 -7 -10
-15 -10 -8 0 -15 5 -15 10 0 6 7 10 15 10 8 0 15 -4 15 -10z m-6330 -10 c0 -5
-5 -10 -11 -10 -5 0 -7 5 -4 10 3 6 8 10 11 10 2 0 4 -4 4 -10z m4625 -1 c-7
-11 -35 -12 -35 -1 0 4 9 8 20 9 11 1 18 -2 15 -8z m362 5 c-3 -3 -12 -4 -19
-1 -8 3 -5 6 6 6 11 1 17 -2 13 -5z m581 -5 c-2 -6 -8 -11 -13 -11 -6 0 -16
-4 -22 -10 -8 -6 -13 -7 -13 -1 0 6 10 15 23 21 29 14 29 14 25 1z m937 1 c-3
-5 -13 -10 -21 -10 -8 0 -14 5 -14 10 0 6 9 10 21 10 11 0 17 -4 14 -10z
m-503 -15 c0 -5 -5 -11 -11 -13 -6 -2 -11 4 -11 13 0 9 5 15 11 13 6 -2 11 -8
11 -13z m-1002 -5 c-19 -13 -30 -13 -30 0 0 6 10 10 23 10 18 0 19 -2 7 -10z
m1335 -11 c-10 -15 -25 -10 -19 6 4 8 10 12 15 9 5 -3 7 -10 4 -15z m-8248
-14 c-14 -29 -22 -31 -31 -8 -7 16 8 33 31 33 8 0 8 -6 0 -25z m6515 3 c-6 -6
-15 -8 -19 -4 -4 4 -1 11 7 16 8 5 17 7 19 4 3 -2 -1 -10 -7 -16z m638 12 c0
-5 -7 -10 -16 -10 -8 0 -12 5 -9 10 3 6 10 10 16 10 5 0 9 -4 9 -10z m470 0
c0 -5 -7 -10 -15 -10 -8 0 -15 5 -15 10 0 6 7 10 15 10 8 0 15 -4 15 -10z
m120 -4 c0 -2 -7 -6 -15 -10 -8 -3 -15 -1 -15 4 0 6 7 10 15 10 8 0 15 -2 15
-4z m135 -6 c-3 -5 -14 -10 -23 -9 -14 0 -13 2 3 9 27 11 27 11 20 0z m330 0
c3 -5 -1 -10 -10 -10 -9 0 -13 5 -10 10 3 6 8 10 10 10 2 0 7 -4 10 -10z m364
-6 c8 -7 -9 -34 -21 -33 -10 0 -10 2 0 6 22 9 2 23 -34 23 -19 0 -34 5 -34 10
0 9 77 4 89 -6z m124 9 c-13 -2 -23 -9 -23 -14 0 -6 -5 -7 -10 -4 -17 11 0 25
28 24 24 -2 24 -2 5 -6z m-1803 -13 c0 -5 -9 -10 -19 -10 -11 0 -23 5 -26 10
-4 6 5 10 19 10 14 0 26 -4 26 -10z m430 2 c0 -10 -21 -32 -31 -32 -4 0 -5 9
-2 20 5 19 33 29 33 12z m95 -1 c12 -20 -35 -34 -69 -21 l-21 9 23 0 c12 1 22
6 22 11 0 13 37 13 45 1z m265 -12 c0 -5 -4 -9 -10 -9 -5 0 -10 7 -10 16 0 8
5 12 10 9 6 -3 10 -10 10 -16z m806 -7 c-2 -2 -21 0 -41 4 -22 4 -32 10 -25
14 11 7 74 -10 66 -18z m-941 8 c-3 -5 2 -10 12 -10 11 0 14 -3 7 -8 -6 -4
-14 -14 -17 -22 -3 -10 -6 -7 -6 8 -1 19 -5 22 -22 17 -19 -6 -20 -5 -8 8 15
18 44 23 34 7z m599 -14 c-7 -18 -54 -23 -54 -5 0 6 8 8 19 4 12 -4 21 0 25
11 4 9 9 15 11 12 3 -3 3 -13 -1 -22z m-1324 10 c0 -2 -7 -7 -16 -10 -8 -3
-12 -2 -9 4 6 10 25 14 25 6z m900 0 c0 -3 -4 -8 -10 -11 -5 -3 -10 -1 -10 4
0 6 5 11 10 11 6 0 10 -2 10 -4z m340 0 c0 -2 -7 -7 -16 -10 -8 -3 -12 -2 -9
4 6 10 25 14 25 6z m-3920 -16 c-8 -5 -19 -10 -25 -10 -5 0 -3 5 5 10 8 5 20
10 25 10 6 0 3 -5 -5 -10z m3125 -11 c-1 -22 -23 -41 -37 -33 -4 3 -8 -2 -8
-10 0 -19 -16 -29 -31 -20 -8 5 -6 10 5 16 9 5 16 16 16 23 0 8 9 15 20 15 11
0 20 7 20 15 0 8 4 15 8 15 5 0 8 -9 7 -21z m730 11 c-3 -5 -15 -10 -26 -10
-10 0 -19 5 -19 10 0 6 12 10 26 10 14 0 23 -4 19 -10z m225 0 c0 -5 -5 -10
-11 -10 -5 0 -7 5 -4 10 3 6 8 10 11 10 2 0 4 -4 4 -10z m-1667 -7 c-7 -2 -19
-2 -25 0 -7 3 -2 5 12 5 14 0 19 -2 13 -5z m1618 -16 c-10 -9 -11 -8 -5 6 3
10 9 15 12 12 3 -3 0 -11 -7 -18z m217 6 c-4 -21 -36 -29 -51 -14 -9 9 -8 14
3 21 25 16 52 12 48 -7z m-932 -28 c-3 -8 -13 -15 -23 -15 -11 0 -14 3 -7 8 6
4 14 16 18 27 6 13 10 16 13 7 3 -7 2 -19 -1 -27z m49 25 c3 -5 -1 -10 -9 -10
-8 0 -18 5 -21 10 -3 6 1 10 9 10 8 0 18 -4 21 -10z m130 0 c3 -5 -1 -10 -9
-10 -8 0 -18 5 -21 10 -3 6 1 10 9 10 8 0 18 -4 21 -10z m-451 -21 c-3 -5 -9
-7 -13 -5 -4 3 -17 -3 -28 -13 -13 -12 -25 -16 -34 -11 -17 11 -7 21 34 35 34
12 51 10 41 -6z m233 15 c-3 -3 -12 -4 -19 -1 -8 3 -5 6 6 6 11 1 17 -2 13 -5z
m348 -4 c3 -5 -1 -10 -9 -10 -9 0 -16 5 -16 10 0 6 4 10 9 10 6 0 13 -4 16
-10z m820 0 c-3 -5 -10 -10 -16 -10 -5 0 -9 5 -9 10 0 6 7 10 16 10 8 0 12 -4
9 -10z m-1694 -23 c-13 -13 -26 -3 -16 12 3 6 11 8 17 5 6 -4 6 -10 -1 -17z
m1159 -13 c0 -19 -16 -18 -24 2 -11 27 -7 37 9 24 8 -7 15 -19 15 -26z m170
32 c0 -3 -4 -8 -10 -11 -5 -3 -10 -1 -10 4 0 6 5 11 10 11 6 0 10 -2 10 -4z
m-1440 -16 c0 -5 -7 -10 -15 -10 -8 0 -15 5 -15 10 0 6 7 10 15 10 8 0 15 -4
15 -10z m760 -5 c0 -8 -4 -15 -10 -15 -5 0 -10 7 -10 15 0 8 5 15 10 15 6 0
10 -7 10 -15z m773 8 c-7 -2 -19 -2 -25 0 -7 3 -2 5 12 5 14 0 19 -2 13 -5z
m-7023 -42 c-19 -36 -34 -40 -53 -15 -17 23 -17 23 10 38 34 17 58 4 43 -23z
m5093 32 c-7 -2 -19 -2 -25 0 -7 3 -2 5 12 5 14 0 19 -2 13 -5z m1014 -13 c1
-11 -4 -20 -13 -20 -17 0 -18 12 -2 28 7 7 12 12 13 12 0 0 1 -9 2 -20z m994
7 c-1 -12 -15 -9 -19 4 -3 6 1 10 8 8 6 -3 11 -8 11 -12z m-1084 -3 c-3 -3
-12 -4 -19 -1 -8 3 -5 6 6 6 11 1 17 -2 13 -5z m470 0 c-3 -3 -12 -4 -19 -1
-8 3 -5 6 6 6 11 1 17 -2 13 -5z m838 -4 c3 -5 2 -10 -4 -10 -5 0 -13 5 -16
10 -3 6 -2 10 4 10 5 0 13 -4 16 -10z m-10068 -6 c-3 -3 -12 -4 -19 -1 -8 3
-5 6 6 6 11 1 17 -2 13 -5z m7745 -16 c-9 -9 -15 -9 -24 0 -9 9 -7 12 12 12
19 0 21 -3 12 -12z m1673 2 c3 -6 -4 -10 -17 -10 -18 0 -20 2 -8 10 19 12 18
12 25 0z m50 -10 c10 -11 15 -20 11 -20 -4 0 -16 9 -28 20 -12 11 -17 20 -11
20 5 0 18 -9 28 -20z m232 14 c-3 -3 -12 -4 -19 -1 -8 3 -5 6 6 6 11 1 17 -2
13 -5z m443 -4 c0 -5 -14 -10 -31 -10 -17 0 -28 4 -24 10 3 6 17 10 31 10 13
0 24 -4 24 -10z m-8580 -19 c0 -10 -9 -38 -21 -62 l-20 -44 6 54 c3 30 8 58
11 63 9 15 24 8 24 -11z m6868 -1 c-12 -18 -38 -28 -38 -15 0 11 25 34 38 35
10 0 10 -4 0 -20z m169 14 c-3 -3 -12 -4 -19 -1 -8 3 -5 6 6 6 11 1 17 -2 13
-5z m1199 -14 c0 -11 -5 -20 -11 -20 -6 0 -11 9 -11 20 0 11 5 20 11 20 6 0
11 -9 11 -20z m104 5 c0 -9 -9 -15 -25 -15 -26 0 -34 15 -12 23 23 10 37 7 37
-8z m-240 -10 c0 -17 -2 -18 -25 -9 -13 5 -14 8 -3 15 19 13 28 11 28 -6z
m360 5 c0 -5 -5 -10 -11 -10 -5 0 -7 5 -4 10 3 6 8 10 11 10 2 0 4 -4 4 -10z
m-1345 -10 c-3 -5 -15 -10 -26 -10 -11 0 -17 5 -14 10 3 6 15 10 26 10 11 0
17 -4 14 -10z m102 4 c-3 -3 -12 -4 -19 -1 -8 3 -5 6 6 6 11 1 17 -2 13 -5z
m98 -33 c0 -13 -6 -26 -14 -29 -10 -3 -12 1 -8 17 4 17 2 21 -8 17 -9 -3 -12
0 -8 10 9 24 38 12 38 -15z m-8935 6 c0 -16 -47 -40 -60 -32 -19 12 2 35 26
29 15 -4 24 -2 24 5 0 6 2 11 5 11 3 0 5 -6 5 -13z m2988 -5 c3 -9 -3 -13 -19
-10 -12 1 -24 9 -27 16 -3 9 3 13 19 10 12 -1 24 -9 27 -16z m110 0 c2 -7 -2
-10 -12 -6 -9 3 -16 11 -16 16 0 13 23 5 28 -10z m4617 8 c-3 -5 -21 -9 -38
-9 l-32 1 30 8 c43 11 47 11 40 0z m42 4 c-3 -3 -12 -4 -19 -1 -8 3 -5 6 6 6
11 1 17 -2 13 -5z m186 -1 c-7 -2 -19 -2 -25 0 -7 3 -2 5 12 5 14 0 19 -2 13
-5z m394 1 c-3 -3 -12 -4 -19 -1 -8 3 -5 6 6 6 11 1 17 -2 13 -5z m408 -13
c-3 -6 -14 -11 -23 -11 -13 0 -13 2 4 14 21 15 30 14 19 -3z m730 9 c-3 -5
-27 -9 -53 -9 l-47 2 40 7 c61 11 67 11 60 0z m198 3 c-7 -2 -19 -2 -25 0 -7
3 -2 5 12 5 14 0 19 -2 13 -5z m-1818 -13 c-3 -5 -13 -10 -21 -10 -8 0 -12 5
-9 10 3 6 13 10 21 10 8 0 12 -4 9 -10z m362 4 c-3 -3 -12 -4 -19 -1 -8 3 -5
6 6 6 11 1 17 -2 13 -5z m330 0 c-3 -3 -12 -4 -19 -1 -8 3 -5 6 6 6 11 1 17
-2 13 -5z m586 -1 c-7 -2 -19 -2 -25 0 -7 3 -2 5 12 5 14 0 19 -2 13 -5z m402
-3 c-3 -5 -10 -10 -16 -10 -5 0 -9 5 -9 10 0 6 7 10 16 10 8 0 12 -4 9 -10z
m-1155 -10 c0 -12 -41 -30 -53 -23 -10 6 23 32 41 33 6 0 12 -5 12 -10z m1210
0 c0 -5 -4 -10 -10 -10 -5 0 -10 5 -10 10 0 6 5 10 10 10 6 0 10 -4 10 -10z
m-1422 -29 c-15 -25 -28 -27 -28 -6 0 8 7 15 15 15 8 0 15 5 15 12 0 6 3 9 6
6 3 -3 -1 -15 -8 -27z m302 19 c0 -5 -4 -10 -10 -10 -5 0 -10 5 -10 10 0 6 5
10 10 10 6 0 10 -4 10 -10z m-850 -15 c0 -10 -11 -15 -35 -15 -44 0 -46 17 -2
23 17 2 33 5 35 5 1 1 2 -5 2 -13z m810 5 c0 -5 -7 -7 -15 -4 -8 4 -15 8 -15
10 0 2 7 4 15 4 8 0 15 -4 15 -10z m-5020 -9 c0 -6 -4 -13 -10 -16 -5 -3 -10
1 -10 9 0 9 5 16 10 16 6 0 10 -4 10 -9z m6215 -1 c-3 -5 -10 -10 -16 -10 -5
0 -9 5 -9 10 0 6 7 10 16 10 8 0 12 -4 9 -10z m-1630 -10 c-3 -5 -15 -10 -26
-10 -10 0 -19 5 -19 10 0 6 12 10 26 10 14 0 23 -4 19 -10z m45 -5 c-7 -9 -15
-13 -19 -10 -3 3 1 10 9 15 21 14 24 12 10 -5z m939 -16 c-41 -31 -56 -21 -18
12 12 10 26 16 32 12 5 -3 -1 -14 -14 -24z m826 21 c-3 -5 -11 -10 -16 -10 -6
0 -7 5 -4 10 3 6 11 10 16 10 6 0 7 -4 4 -10z m-295 -15 c-7 -8 -20 -15 -28
-15 -13 0 -12 3 4 15 25 19 40 19 24 0z m65 5 c3 -5 -3 -10 -15 -10 -12 0 -18
5 -15 10 3 6 10 10 15 10 5 0 12 -4 15 -10z m-525 -26 c0 -9 -10 -14 -27 -13
-17 1 -21 3 -10 6 9 2 17 11 17 19 0 8 5 12 10 9 6 -3 10 -13 10 -21z m254 5
c-3 -5 -10 -7 -15 -3 -5 3 -16 0 -24 -6 -8 -7 -20 -10 -27 -7 -7 3 2 11 22 20
35 15 55 14 44 -4z m-5934 -10 c0 -5 -4 -9 -10 -9 -5 0 -10 7 -10 16 0 8 5 12
10 9 6 -3 10 -10 10 -16z m4457 15 c-3 -3 -12 -4 -19 -1 -8 3 -5 6 6 6 11 1
17 -2 13 -5z m719 -23 c1 -17 -3 -20 -18 -15 -10 3 -25 0 -33 -6 -12 -10 -15
-9 -15 3 0 16 39 47 55 43 6 -1 11 -13 11 -25z m569 9 c-10 -11 -22 -17 -27
-14 -12 8 11 34 30 34 13 0 12 -3 -3 -20z m591 9 c3 -6 2 -15 -4 -21 -6 -6
-12 -6 -16 1 -4 6 -1 11 6 11 9 0 9 3 -2 10 -9 6 -10 10 -3 10 6 0 15 -5 19
-11z m-9069 -5 c-3 -3 -12 -4 -19 -1 -8 3 -5 6 6 6 11 1 17 -2 13 -5z m7133
-3 c0 -11 -49 -21 -55 -11 -3 5 1 11 7 13 21 9 48 8 48 -2z m1010 -6 c10 -12
10 -15 -4 -15 -9 0 -16 7 -16 15 0 8 2 15 4 15 2 0 9 -7 16 -15z m-7204 -21
c-4 -9 -9 -15 -11 -12 -3 3 -3 13 1 22 4 9 9 15 11 12 3 -3 3 -13 -1 -22z
m7859 16 c-3 -5 -10 -10 -16 -10 -5 0 -9 5 -9 10 0 6 7 10 16 10 8 0 12 -4 9
-10z m180 -10 c4 -6 -6 -10 -22 -9 -25 0 -26 1 -8 9 11 5 21 9 22 9 1 1 5 -3
8 -9z m-9055 -15 c0 -8 -4 -15 -10 -15 -5 0 -7 7 -4 15 4 8 8 15 10 15 2 0 4
-7 4 -15z m7325 -3 c-3 -3 -11 0 -18 7 -9 10 -8 11 6 5 10 -3 15 -9 12 -12z
m505 14 c0 -11 -19 -15 -25 -6 -3 5 1 10 9 10 9 0 16 -2 16 -4z m490 -6 c0 -5
-7 -7 -15 -4 -8 4 -15 8 -15 10 0 2 7 4 15 4 8 0 15 -4 15 -10z m87 -16 c-9
-9 -28 6 -21 18 4 6 10 6 17 -1 6 -6 8 -13 4 -17z m204 9 c3 1 2 -1 -1 -4 -8
-8 -60 -29 -60 -24 0 3 5 14 12 24 9 14 17 17 29 11 9 -5 18 -8 20 -7z m-1144
1 c-3 -3 -12 -4 -19 -1 -8 3 -5 6 6 6 11 1 17 -2 13 -5z m673 -4 c0 -5 -9 -10
-21 -10 -11 0 -17 5 -14 10 3 6 13 10 21 10 8 0 14 -4 14 -10z m1140 0 c0 -5
-7 -10 -15 -10 -8 0 -15 5 -15 10 0 6 7 10 15 10 8 0 15 -4 15 -10z m-7096 -6
c23 -9 20 -24 -4 -24 -11 0 -20 7 -20 15 0 17 2 18 24 9z m6951 -4 c-28 -12
-47 -12 -40 0 3 6 18 10 33 9 24 0 25 -1 7 -9z m-1510 -19 c-3 -6 -11 -8 -17
-5 -6 4 -5 9 3 15 16 10 23 4 14 -10z m148 12 c-7 -2 -19 -2 -25 0 -7 3 -2 5
12 5 14 0 19 -2 13 -5z m134 -19 c-9 -9 -28 6 -21 18 4 6 10 6 17 -1 6 -6 8
-13 4 -17z m380 20 c-3 -3 -12 -4 -19 -1 -8 3 -5 6 6 6 11 1 17 -2 13 -5z m94
-17 c-13 -13 -26 -3 -16 12 3 6 11 8 17 5 6 -4 6 -10 -1 -17z m576 17 c-3 -3
-12 -4 -19 -1 -8 3 -5 6 6 6 11 1 17 -2 13 -5z m642 3 c-39 -29 -59 -36 -59
-23 0 14 17 22 49 25 8 0 12 0 10 -2z m-2054 -17 c3 -5 -1 -10 -9 -10 -9 0
-16 5 -16 10 0 6 4 10 9 10 6 0 13 -4 16 -10z m802 4 c-3 -3 -12 -4 -19 -1 -8
3 -5 6 6 6 11 1 17 -2 13 -5z m148 -32 c-3 -4 -10 0 -15 8 -6 9 -5 17 3 22 13
8 24 -19 12 -30z m-7596 -6 c-8 -6 -14 -17 -14 -25 0 -27 -24 -22 -40 9 -15
29 -15 31 7 39 14 5 31 5 42 -1 17 -9 17 -12 5 -22z m6108 28 c-3 -3 -12 -4
-19 -1 -8 3 -5 6 6 6 11 1 17 -2 13 -5z m1248 -4 c-3 -5 -18 -10 -33 -9 -24 0
-25 1 -7 9 28 12 47 12 40 0z m167 -15 c-4 -24 -45 -46 -58 -32 -7 6 27 42 47
50 8 3 15 6 15 6 1 1 -1 -10 -4 -24z m228 15 c0 -5 -2 -10 -4 -10 -3 0 -8 5
-11 10 -3 6 -1 10 4 10 6 0 11 -4 11 -10z m497 -1 c-14 -8 -22 -8 -30 0 -8 8
-3 11 19 11 25 -1 27 -2 11 -11z m-9162 -9 c3 -5 -1 -10 -10 -10 -9 0 -13 5
-10 10 3 6 8 10 10 10 2 0 7 -4 10 -10z m3905 -20 c-14 -26 -5 -69 17 -85 12
-9 8 -11 -21 -11 -28 0 -36 4 -36 19 0 22 39 111 47 104 2 -3 -1 -15 -7 -27z
m3466 15 c-25 -19 -36 -19 -36 0 0 10 10 15 28 15 26 -1 26 -1 8 -15z m-79
-21 c-9 -9 -28 6 -21 18 4 6 10 6 17 -1 6 -6 8 -13 4 -17z m852 17 c10 -7 7
-9 -12 -8 -15 1 -27 5 -27 10 0 10 22 9 39 -2z m-1069 -11 c0 -5 -4 -10 -10
-10 -5 0 -10 5 -10 10 0 6 5 10 10 10 6 0 10 -4 10 -10z m990 -6 c0 -2 -7 -4
-15 -4 -8 0 -15 4 -15 10 0 5 7 7 15 4 8 -4 15 -8 15 -10z m260 7 c0 -11 -29
-23 -40 -16 -4 3 -10 -2 -14 -10 -3 -8 -13 -15 -21 -15 -11 0 -8 7 12 25 28
24 63 33 63 16z m-1205 -12 c8 -12 -44 -63 -54 -53 -3 4 0 9 7 11 6 3 12 16
12 29 0 25 23 33 35 13z m1630 1 c3 -5 -1 -10 -9 -10 -9 0 -16 5 -16 10 0 6 4
10 9 10 6 0 13 -4 16 -10z m-860 -21 c-10 -15 -25 -10 -19 6 4 8 10 12 15 9 5
-3 7 -10 4 -15z m115 6 c11 -13 8 -15 -15 -15 -23 0 -26 2 -15 15 7 8 14 15
15 15 1 0 8 -7 15 -15z m-500 -5 c0 -5 -9 -10 -21 -10 -11 0 -17 5 -14 10 3 6
13 10 21 10 8 0 14 -4 14 -10z m280 0 c0 -5 -5 -10 -11 -10 -5 0 -7 5 -4 10 3
6 8 10 11 10 2 0 4 -4 4 -10z m1430 0 c0 -5 -7 -10 -16 -10 -8 0 -12 5 -9 10
3 6 10 10 16 10 5 0 9 -4 9 -10z m-1267 -7 c-18 -7 -16 -21 5 -26 11 -3 7 -5
-10 -6 -24 -1 -28 6 -19 37 1 1 9 2 19 1 10 0 12 -3 5 -6z m587 3 c0 -9 -30
-14 -35 -6 -4 6 3 10 14 10 12 0 21 -2 21 -4z m394 -11 c3 -8 1 -15 -4 -15 -6
0 -10 7 -10 15 0 8 2 15 4 15 2 0 6 -7 10 -15z m81 5 c3 -5 1 -10 -4 -10 -6 0
-11 5 -11 10 0 6 2 10 4 10 3 0 8 -4 11 -10z m75 5 c0 -2 -10 -9 -22 -15 -22
-11 -22 -10 -4 4 21 17 26 19 26 11z m-1500 -15 c0 -5 -4 -10 -10 -10 -5 0
-10 5 -10 10 0 6 5 10 10 10 6 0 10 -4 10 -10z m880 0 c0 -5 -7 -10 -15 -10
-8 0 -15 5 -15 10 0 6 7 10 15 10 8 0 15 -4 15 -10z m926 -5 c-11 -8 -31 -15
-45 -15 -43 0 1 26 49 29 11 0 10 -4 -4 -14z m-1731 -5 c3 -5 4 -10 1 -10 -2
0 -12 -3 -20 -6 -12 -5 -15 -2 -10 10 7 18 20 21 29 6z m230 0 c3 -5 1 -10 -4
-10 -6 0 -11 5 -11 10 0 6 2 10 4 10 3 0 8 -4 11 -10z m271 -18 c-22 -5 -30 3
-21 18 5 8 11 7 22 -2 15 -12 14 -13 -1 -16z m-5796 10 c0 -16 -46 -49 -84
-60 -44 -13 -39 -4 25 37 47 31 59 36 59 23z m4580 4 c0 -3 -4 -8 -10 -11 -5
-3 -10 -1 -10 4 0 6 5 11 10 11 6 0 10 -2 10 -4z m1170 -6 c0 -5 -7 -10 -15
-10 -8 0 -15 5 -15 10 0 6 7 10 15 10 8 0 15 -4 15 -10z m120 0 c0 -5 -4 -10
-10 -10 -5 0 -10 5 -10 10 0 6 5 10 10 10 6 0 10 -4 10 -10z m1387 4 c-3 -3
-12 -4 -19 -1 -8 3 -5 6 6 6 11 1 17 -2 13 -5z m-2497 -14 c0 -5 -4 -10 -10
-10 -5 0 -10 5 -10 10 0 6 5 10 10 10 6 0 10 -4 10 -10z m238 3 c-10 -2 -26
-2 -35 0 -10 3 -2 5 17 5 19 0 27 -2 18 -5z m412 -3 c0 -5 -4 -10 -10 -10 -5
0 -10 5 -10 10 0 6 5 10 10 10 6 0 10 -4 10 -10z m-6078 -12 c20 -16 28 -53
11 -52 -7 1 -26 2 -43 3 -34 1 -41 26 -12 47 21 17 24 17 44 2z m6953 2 c4 -6
-5 -10 -20 -10 -15 0 -24 4 -20 10 3 6 12 10 20 10 8 0 17 -4 20 -10z m535 0
c-20 -13 -43 -13 -35 0 3 6 16 10 28 10 18 0 19 -2 7 -10z m-2023 -29 c2 -14
-2 -18 -17 -14 -16 4 -17 8 -7 24 13 20 19 17 24 -10z m433 7 c-13 -5 -33 -7
-45 -5 -15 2 -12 6 15 14 40 12 65 4 30 -9z m-540 0 c0 -5 -8 -8 -17 -8 -16
-1 -16 -2 1 -15 19 -14 19 -15 -7 -15 -15 0 -27 -5 -27 -10 0 -7 -7 -7 -21 1
l-21 11 21 15 c12 8 19 18 16 23 -3 5 8 8 25 7 16 -1 30 -5 30 -9z m269 -14
c-14 -17 -30 -9 -23 11 3 7 12 11 20 8 11 -4 12 -9 3 -19z m161 16 c0 -5 -8
-10 -17 -10 -15 0 -16 2 -3 10 19 12 20 12 20 0z m1083 3 c-7 -2 -19 -2 -25 0
-7 3 -2 5 12 5 14 0 19 -2 13 -5z m310 0 c-7 -2 -19 -2 -25 0 -7 3 -2 5 12 5
14 0 19 -2 13 -5z m674 1 c-3 -3 -12 -4 -19 -1 -8 3 -5 6 6 6 11 1 17 -2 13
-5z m-9840 -19 c19 -5 20 -9 12 -40 -10 -34 -5 -84 10 -114 12 -25 14 -121 1
-121 -5 0 -10 10 -10 23 0 12 -7 56 -16 97 -8 41 -13 84 -9 97 4 17 1 23 -12
24 -11 0 -13 3 -5 6 19 8 14 23 -8 23 -11 0 -20 5 -20 11 0 6 8 8 18 5 9 -2
27 -7 39 -11z m2443 0 c0 -8 -9 -24 -19 -34 -10 -10 -22 -28 -26 -40 -7 -24
-35 -29 -35 -6 0 8 6 15 14 15 9 0 13 9 11 25 -1 14 2 25 7 25 5 0 6 4 3 10
-3 5 0 7 8 4 8 -3 18 -1 22 5 9 15 15 14 15 -4z m5987 9 c-3 -3 -12 -4 -19 -1
-8 3 -5 6 6 6 11 1 17 -2 13 -5z m-1187 -19 c0 -8 -7 -15 -15 -15 -16 0 -20
12 -8 23 11 12 23 8 23 -8z m870 5 c0 -5 -4 -10 -10 -10 -5 0 -10 5 -10 10 0
6 5 10 10 10 6 0 10 -4 10 -10z m150 6 c0 -2 -7 -6 -15 -10 -8 -3 -15 -1 -15
4 0 6 7 10 15 10 8 0 15 -2 15 -4z m405 -6 c-3 -5 -13 -10 -21 -10 -8 0 -14 5
-14 10 0 6 9 10 21 10 11 0 17 -4 14 -10z m-6308 -6 c-3 -3 -12 -4 -19 -1 -8
3 -5 6 6 6 11 1 17 -2 13 -5z m5033 -4 c0 -5 -10 -10 -22 -10 -19 0 -20 2 -8
10 19 13 30 13 30 0z m630 6 c0 -2 -7 -9 -15 -16 -12 -10 -15 -10 -15 4 0 9 7
16 15 16 8 0 15 -2 15 -4z m144 -17 c-8 -14 -24 -10 -24 6 0 9 6 12 15 9 8 -4
12 -10 9 -15z m233 15 c-3 -3 -12 -4 -19 -1 -8 3 -5 6 6 6 11 1 17 -2 13 -5z
m373 -4 c0 -5 -2 -10 -4 -10 -3 0 -8 5 -11 10 -3 6 -1 10 4 10 6 0 11 -4 11
-10z m343 3 c-7 -2 -19 -2 -25 0 -7 3 -2 5 12 5 14 0 19 -2 13 -5z m654 1 c-3
-3 -12 -4 -19 -1 -8 3 -5 6 6 6 11 1 17 -2 13 -5z m-2564 -24 c3 -11 1 -18 -4
-14 -5 3 -9 12 -9 20 0 20 7 17 13 -6z m487 12 c0 -4 -18 -6 -40 -4 -22 2 -40
6 -40 8 0 2 18 4 40 4 22 0 40 -3 40 -8z m1480 -2 c0 -5 -7 -10 -16 -10 -8 0
-12 5 -9 10 3 6 10 10 16 10 5 0 9 -4 9 -10z m-6838 -7 c-12 -2 -20 -9 -17
-14 3 -5 -1 -6 -9 -3 -24 9 -9 24 22 23 24 -2 24 -2 4 -6z m5551 0 c-7 -2 -19
-2 -25 0 -7 3 -2 5 12 5 14 0 19 -2 13 -5z m347 -3 c8 -5 12 -12 9 -15 -8 -8
-39 5 -39 16 0 11 11 11 30 -1z m1417 4 c-3 -3 -12 -4 -19 -1 -8 3 -5 6 6 6
11 1 17 -2 13 -5z m33 -4 c0 -5 -2 -10 -4 -10 -3 0 -8 5 -11 10 -3 6 -1 10 4
10 6 0 11 -4 11 -10z m-203 -6 c-3 -3 -12 -4 -19 -1 -8 3 -5 6 6 6 11 1 17 -2
13 -5z m-2051 -13 c-4 -5 0 -12 6 -15 7 -3 4 -5 -6 -3 -24 3 -34 27 -11 27 9
0 14 -4 11 -9z m51 -7 c-3 -3 -12 -4 -19 -1 -8 3 -5 6 6 6 11 1 17 -2 13 -5z
m323 2 c0 -9 -40 -13 -46 -5 -3 5 6 9 20 9 14 0 26 -2 26 -4z m223 -3 c-7 -2
-19 -2 -25 0 -7 3 -2 5 12 5 14 0 19 -2 13 -5z m127 -3 c0 -5 -2 -10 -4 -10
-3 0 -8 5 -11 10 -3 6 -1 10 4 10 6 0 11 -4 11 -10z m270 -13 c12 -4 12 -6 -2
-6 -9 -1 -20 -6 -24 -13 -5 -7 -2 -8 7 -3 10 6 11 5 3 -4 -6 -6 -18 -9 -27 -5
-15 5 -15 8 1 29 9 13 19 19 22 15 3 -4 12 -10 20 -13z m129 1 c0 -13 -3 -17
-6 -10 -2 6 -12 12 -21 12 -15 0 -15 2 -2 10 23 15 30 12 29 -12z m238 11
c-14 -8 -22 -8 -30 0 -8 8 -3 11 19 11 25 -1 27 -2 11 -11z m-432 -9 c-3 -5
-15 -10 -26 -10 -11 0 -17 5 -14 10 3 6 15 10 26 10 11 0 17 -4 14 -10z m-65
-4 c0 -2 -7 -7 -16 -10 -8 -3 -12 -2 -9 4 6 10 25 14 25 6z m865 -5 c3 -5 1
-12 -5 -16 -5 -3 -10 1 -10 9 0 18 6 21 15 7z m530 -1 c-3 -5 -13 -10 -21 -10
-8 0 -12 5 -9 10 3 6 13 10 21 10 8 0 12 -4 9 -10z m-2045 -5 c0 -2 -9 -9 -20
-15 -16 -9 -20 -8 -20 5 0 8 9 15 20 15 11 0 20 -2 20 -5z m375 -5 c3 -5 1
-10 -4 -10 -6 0 -11 5 -11 10 0 6 2 10 4 10 3 0 8 -4 11 -10z m655 -5 c-7 -8
-17 -12 -23 -8 -6 4 -3 9 9 14 27 11 28 11 14 -6z m1280 5 c0 -5 -5 -10 -11
-10 -5 0 -7 5 -4 10 3 6 8 10 11 10 2 0 4 -4 4 -10z m-2655 -10 l20 -9 -20 0
c-11 0 -29 4 -40 9 l-20 9 20 0 c11 0 29 -4 40 -9z m89 2 c2 -4 -2 -16 -10
-27 -8 -10 -14 -17 -15 -14 0 2 -2 14 -5 27 -4 21 18 32 30 14z m726 -2 c0 -5
-7 -10 -15 -10 -8 0 -15 5 -15 10 0 6 7 10 15 10 8 0 15 -4 15 -10z m497 4
c-3 -3 -12 -4 -19 -1 -8 3 -5 6 6 6 11 1 17 -2 13 -5z m-8010 -26 c-3 -8 -6
-5 -6 6 -1 11 2 17 5 13 3 -3 4 -12 1 -19z m1903 9 c0 -21 -20 -35 -41 -30
-19 5 -19 7 -3 24 20 22 44 25 44 6z m7115 3 c3 -5 -3 -10 -14 -10 -12 0 -21
5 -21 10 0 6 6 10 14 10 8 0 18 -4 21 -10z m282 4 c-3 -3 -12 -4 -19 -1 -8 3
-5 6 6 6 11 1 17 -2 13 -5z m-10101 -26 c-18 -10 -39 -2 -31 12 3 4 15 6 26 3
19 -5 19 -7 5 -15z m8124 12 c0 -5 -9 -10 -21 -10 -11 0 -17 5 -14 10 3 6 13
10 21 10 8 0 14 -4 14 -10z m355 0 c-3 -5 -11 -10 -16 -10 -6 0 -7 5 -4 10 3
6 11 10 16 10 6 0 7 -4 4 -10z m1030 0 c3 -5 2 -10 -4 -10 -5 0 -13 5 -16 10
-3 6 -2 10 4 10 5 0 13 -4 16 -10z m-2065 -37 c12 -11 12 -13 -2 -13 -9 0 -18
5 -20 10 -2 6 -13 12 -26 13 -12 0 -22 7 -22 14 0 10 6 10 28 1 15 -6 34 -18
42 -25z m2490 26 c0 -5 -14 -9 -31 -9 -16 0 -28 3 -26 8 7 10 57 12 57 1z
m-9878 -20 c22 -10 119 -118 126 -139 9 -27 -30 -5 -59 33 -18 23 -51 59 -73
79 -41 37 -38 48 6 27z m7808 1 c0 -5 -7 -10 -16 -10 -8 0 -12 5 -9 10 3 6 10
10 16 10 5 0 9 -4 9 -10z m395 -8 c-3 -3 -11 0 -18 7 -9 10 -8 11 6 5 10 -3
15 -9 12 -12z m35 -7 c0 -8 -3 -16 -7 -18 -5 -3 -8 5 -8 18 0 13 3 21 8 18 4
-2 7 -10 7 -18z m-8123 9 c-3 -3 -12 -4 -19 -1 -8 3 -5 6 6 6 11 1 17 -2 13
-5z m7746 -14 c-6 -22 -28 -27 -39 -8 -4 6 -3 8 3 5 6 -4 16 0 23 8 17 20 19
19 13 -5z m-353 3 c0 -12 -51 -33 -77 -33 -13 0 -23 4 -23 8 0 5 14 7 30 4 17
-2 30 0 30 6 0 6 8 13 18 15 9 3 18 5 20 6 1 0 2 -2 2 -6z m200 3 c0 -3 -4 -8
-10 -11 -5 -3 -10 -1 -10 4 0 6 5 11 10 11 6 0 10 -2 10 -4z m310 -21 c0 -8
-7 -15 -16 -15 -14 0 -14 3 -4 15 7 8 14 15 16 15 2 0 4 -7 4 -15z m56 0 c-11
-8 -25 -15 -30 -15 -6 0 -2 7 8 15 11 8 25 15 30 15 6 0 2 -7 -8 -15z m-431
-5 c-3 -5 -16 -10 -28 -10 -18 0 -19 2 -7 10 20 13 43 13 35 0z m299 -11 c-3
-5 -10 -7 -15 -3 -5 3 -7 10 -3 15 3 5 10 7 15 3 5 -3 7 -10 3 -15z m566 11
c0 -5 -7 -10 -16 -10 -8 0 -12 5 -9 10 3 6 10 10 16 10 5 0 9 -4 9 -10z m-805
-19 c-3 -6 -14 -11 -23 -11 -13 0 -13 2 4 14 21 15 30 14 19 -3z m-360 -1 c3
-5 1 -10 -4 -10 -6 0 -11 5 -11 10 0 6 2 10 4 10 3 0 8 -4 11 -10z m1471 -5
c-3 -8 0 -15 6 -15 6 0 9 -2 6 -5 -3 -4 -18 -3 -33 1 l-28 7 24 13 c31 17 32
17 25 -1z m-826 1 c0 -2 -7 -7 -16 -10 -8 -3 -12 -2 -9 4 6 10 25 14 25 6z
m910 -11 c0 -8 -7 -15 -15 -15 -9 0 -12 6 -9 15 4 8 10 15 15 15 5 0 9 -7 9
-15z m487 9 c-3 -3 -12 -4 -19 -1 -8 3 -5 6 6 6 11 1 17 -2 13 -5z m-9060 -24
c14 -11 21 -20 15 -20 -12 0 -60 39 -49 40 5 0 20 -9 34 -20z m7162 4 c10 -9
-35 -3 -49 6 -11 8 -7 9 15 4 17 -4 32 -8 34 -10z m333 9 c-10 -4 -9 -8 5 -19
16 -12 15 -13 -14 -14 -18 0 -33 4 -33 10 0 10 30 30 45 29 6 0 4 -3 -3 -6z
m398 -3 c0 -5 -5 -10 -11 -10 -5 0 -7 5 -4 10 3 6 8 10 11 10 2 0 4 -4 4 -10z
m860 0 c0 -5 -6 -10 -14 -10 -8 0 -18 5 -21 10 -3 6 3 10 14 10 12 0 21 -4 21
-10z m-7570 -20 c0 -5 -4 -10 -10 -10 -5 0 -10 5 -10 10 0 6 5 10 10 10 6 0
10 -4 10 -10z m6005 0 c-3 -5 -1 -10 6 -10 7 0 10 -2 7 -5 -3 -3 -13 -2 -22 1
-14 5 -15 9 -4 15 17 11 20 11 13 -1z m-7555 -32 c0 -6 -7 -5 -15 2 -8 7 -15
17 -15 22 0 6 7 5 15 -2 8 -7 15 -17 15 -22z m7360 10 c12 -4 10 -7 -8 -17
-20 -11 -22 -10 -22 16 0 15 4 23 8 17 4 -6 14 -13 22 -16z m340 7 c-14 -17
-40 -20 -40 -6 0 5 10 12 23 14 12 2 24 5 26 6 2 0 -2 -6 -9 -14z m650 5 c0
-5 -13 -10 -30 -10 -16 0 -30 5 -30 10 0 6 14 10 30 10 17 0 30 -4 30 -10z
m-7540 -10 c0 -5 -4 -10 -10 -10 -5 0 -10 5 -10 10 0 6 5 10 10 10 6 0 10 -4
10 -10z m6618 -7 c16 -16 16 -16 0 -10 -10 3 -18 2 -18 -3 0 -6 8 -10 18 -11
12 0 11 -3 -6 -10 -30 -11 -47 -2 -32 16 7 8 9 19 5 25 -10 16 15 12 33 -7z
m189 11 c-3 -3 -12 -4 -19 -1 -8 3 -5 6 6 6 11 1 17 -2 13 -5z m613 2 c0 -11
-19 -15 -25 -6 -3 5 1 10 9 10 9 0 16 -2 16 -4z m37 -2 c-3 -3 -12 -4 -19 -1
-8 3 -5 6 6 6 11 1 17 -2 13 -5z m708 -4 c-3 -5 -12 -10 -20 -10 -8 0 -17 5
-20 10 -4 6 5 10 20 10 15 0 24 -4 20 -10z m-473 -22 c-7 -7 -12 -8 -12 -2 0
14 12 26 19 19 2 -3 -1 -11 -7 -17z m-972 -3 c0 -1 -11 -5 -24 -7 -16 -3 -23
-1 -19 7 3 10 43 10 43 0z m107 9 c-3 -3 -12 -4 -19 -1 -8 3 -5 6 6 6 11 1 17
-2 13 -5z m260 -10 c-3 -3 -12 -4 -19 -1 -8 3 -5 6 6 6 11 1 17 -2 13 -5z
m-16 -22 c-7 -2 -18 1 -23 6 -8 8 -4 9 13 5 13 -4 18 -8 10 -11z m-7692 -9 c6
-10 11 -12 11 -5 0 6 4 12 8 12 5 0 13 -27 18 -59 9 -56 9 -59 -8 -50 -10 5
-19 7 -19 4 -1 -3 -2 -9 -3 -14 0 -5 -5 -13 -9 -18 -5 -4 -6 8 -2 28 5 25 2
46 -9 67 -9 17 -16 36 -16 42 0 16 18 12 29 -7z m8616 7 c-3 -5 -10 -10 -16
-10 -5 0 -9 5 -9 10 0 6 7 10 16 10 8 0 12 -4 9 -10z m570 0 c-3 -5 -11 -10
-16 -10 -6 0 -7 5 -4 10 3 6 11 10 16 10 6 0 7 -4 4 -10z m-2015 -4 c0 -11
-19 -15 -25 -6 -3 5 1 10 9 10 9 0 16 -2 16 -4z m730 -6 c0 -5 -5 -10 -11 -10
-5 0 -7 5 -4 10 3 6 8 10 11 10 2 0 4 -4 4 -10z m270 0 c0 -5 -4 -10 -10 -10
-5 0 -10 5 -10 10 0 6 5 10 10 10 6 0 10 -4 10 -10z m-5521 -16 c11 -10 -12
-34 -33 -34 -24 0 -52 31 -39 43 5 6 63 -2 72 -9z m4601 6 c0 -5 -9 -10 -20
-10 -11 0 -20 5 -20 10 0 6 9 10 20 10 11 0 20 -4 20 -10z m351 -13 c-10 -9
-11 -8 -5 6 3 10 9 15 12 12 3 -3 0 -11 -7 -18z m-4866 3 c-3 -5 -15 -10 -26
-10 -11 0 -17 5 -14 10 3 6 15 10 26 10 11 0 17 -4 14 -10z m5238 -7 c-7 -2
-19 -2 -25 0 -7 3 -2 5 12 5 14 0 19 -2 13 -5z m-837 -11 c13 -8 15 -42 2 -42
-4 0 -8 -7 -8 -16 0 -9 -9 -18 -20 -21 -11 -3 -20 -10 -20 -16 0 -6 -2 -8 -5
-6 -4 4 7 57 20 97 5 14 15 15 31 4z m464 -7 c0 -2 -9 -9 -20 -15 -12 -6 -20
-7 -20 -1 0 5 8 12 18 14 9 3 18 5 20 6 1 0 2 -1 2 -4z m760 1 c0 -3 -4 -8
-10 -11 -5 -3 -10 -1 -10 4 0 6 5 11 10 11 6 0 10 -2 10 -4z m-667 -13 c-7 -2
-19 -2 -25 0 -7 3 -2 5 12 5 14 0 19 -2 13 -5z m274 1 c-3 -3 -12 -4 -19 -1
-8 3 -5 6 6 6 11 1 17 -2 13 -5z m230 0 c-3 -3 -12 -4 -19 -1 -8 3 -5 6 6 6
11 1 17 -2 13 -5z m-294 -21 c-7 -2 -19 -2 -25 0 -7 3 -2 5 12 5 14 0 19 -2
13 -5z m1374 1 c-3 -3 -12 -4 -19 -1 -8 3 -5 6 6 6 11 1 17 -2 13 -5z m-9576
-45 c-5 -13 -10 -19 -10 -12 -1 15 10 45 15 40 3 -2 0 -15 -5 -28z m607 10
c-2 -6 -8 -10 -13 -10 -5 0 -11 4 -13 10 -2 6 4 11 13 11 9 0 15 -5 13 -11z
m6937 1 c3 -5 -3 -10 -14 -10 -12 0 -21 5 -21 10 0 6 6 10 14 10 8 0 18 -4 21
-10z m69 -20 c27 0 17 -6 -20 -13 -28 -5 -31 -4 -27 14 4 14 9 17 16 10 6 -6
20 -11 31 -11z m109 13 c-7 -2 -19 -2 -25 0 -7 3 -2 5 12 5 14 0 19 -2 13 -5z
m362 -3 c-3 -5 -13 -10 -21 -10 -8 0 -12 5 -9 10 3 6 13 10 21 10 8 0 12 -4 9
-10z m844 -4 c-2 -2 -17 -6 -34 -10 -22 -5 -26 -4 -15 4 14 9 59 15 49 6z
m-656 -13 c-7 -2 -19 -2 -25 0 -7 3 -2 5 12 5 14 0 19 -2 13 -5z m944 1 c-3
-3 -12 -4 -19 -1 -8 3 -5 6 6 6 11 1 17 -2 13 -5z m310 0 c-3 -3 -12 -4 -19
-1 -8 3 -5 6 6 6 11 1 17 -2 13 -5z m183 -4 c0 -5 -4 -10 -10 -10 -5 0 -10 5
-10 10 0 6 5 10 10 10 6 0 10 -4 10 -10z m-8620 -10 c0 -5 -2 -10 -4 -10 -3 0
-8 5 -11 10 -3 6 -1 10 4 10 6 0 11 -4 11 -10z m6437 4 c-3 -3 -12 -4 -19 -1
-8 3 -5 6 6 6 11 1 17 -2 13 -5z m373 -4 c0 -5 -4 -10 -9 -10 -6 0 -13 5 -16
10 -3 6 1 10 9 10 9 0 16 -4 16 -10z m700 6 c0 -2 -9 -6 -20 -9 -11 -3 -20 -1
-20 4 0 5 9 9 20 9 11 0 20 -2 20 -4z m150 0 c0 -2 -7 -7 -16 -10 -8 -3 -12
-2 -9 4 6 10 25 14 25 6z m-8217 -37 c12 -12 17 -19 11 -16 -7 4 -15 -1 -18
-10 -8 -19 -21 -9 -31 25 -8 28 9 29 38 1z m6964 15 c-3 -3 -12 -4 -19 -1 -8
3 -5 6 6 6 11 1 17 -2 13 -5z m1276 -1 c-7 -2 -19 -2 -25 0 -7 3 -2 5 12 5 14
0 19 -2 13 -5z m-6553 -23 c0 -13 -20 -13 -40 0 -12 8 -9 10 13 10 15 0 27 -4
27 -10z m7688 3 c-10 -2 -26 -2 -35 0 -10 3 -2 5 17 5 19 0 27 -2 18 -5z m79
1 c-3 -3 -12 -4 -19 -1 -8 3 -5 6 6 6 11 1 17 -2 13 -5z m116 -1 c-7 -2 -19
-2 -25 0 -7 3 -2 5 12 5 14 0 19 -2 13 -5z m-2283 -18 c-7 -9 -15 -13 -19 -10
-3 3 1 10 9 15 21 14 24 12 10 -5z m735 -3 c-3 -3 -11 0 -18 7 -9 10 -8 11 6
5 10 -3 15 -9 12 -12z m1035 8 c8 -5 11 -10 5 -10 -5 0 -17 5 -25 10 -8 5 -10
10 -5 10 6 0 17 -5 25 -10z m550 -20 c0 -5 -2 -10 -4 -10 -3 0 -8 5 -11 10 -3
6 -1 10 4 10 6 0 11 -4 11 -10z m-1140 -10 c0 -5 -12 -10 -27 -9 -25 0 -26 1
-8 9 27 12 35 12 35 0z m1257 4 c-3 -3 -12 -4 -19 -1 -8 3 -5 6 6 6 11 1 17
-2 13 -5z m-1698 -8 c-12 -10 -59 -15 -59 -6 0 5 14 10 32 10 17 0 29 -2 27
-4z m456 -26 c-3 -5 -10 -10 -16 -10 -5 0 -9 5 -9 10 0 6 7 10 16 10 8 0 12
-4 9 -10z m-1408 -26 c-3 -3 -12 -4 -19 -1 -8 3 -5 6 6 6 11 1 17 -2 13 -5z
m690 0 c-3 -3 -12 -4 -19 -1 -8 3 -5 6 6 6 11 1 17 -2 13 -5z m1180 0 c-3 -3
-12 -4 -19 -1 -8 3 -5 6 6 6 11 1 17 -2 13 -5z m-1017 -14 c0 -5 -5 -10 -11
-10 -5 0 -7 5 -4 10 3 6 8 10 11 10 2 0 4 -4 4 -10z m1640 6 c0 -2 -11 -6 -25
-8 -13 -3 -22 -1 -19 3 5 9 44 13 44 5z m-1815 -17 c-7 -11 -35 -12 -35 -1 0
4 9 8 20 9 11 1 18 -2 15 -8z m-5668 -15 c-3 -3 -12 -4 -19 -1 -8 3 -5 6 6 6
11 1 17 -2 13 -5z m5163 -8 c0 -11 -19 -15 -25 -6 -3 5 1 10 9 10 9 0 16 -2
16 -4z m-7110 -16 c0 -5 -7 -10 -16 -10 -8 0 -12 5 -9 10 3 6 10 10 16 10 5 0
9 -4 9 -10z m7200 0 c0 -5 -5 -10 -11 -10 -5 0 -7 5 -4 10 3 6 8 10 11 10 2 0
4 -4 4 -10z m-5857 -7 c-7 -2 -19 -2 -25 0 -7 3 -2 5 12 5 14 0 19 -2 13 -5z
m6047 -7 c0 -2 -9 -6 -20 -9 -11 -3 -20 -1 -20 4 0 5 9 9 20 9 11 0 20 -2 20
-4z m-6133 -12 c-3 -3 -12 -4 -19 -1 -8 3 -5 6 6 6 11 1 17 -2 13 -5z m910 0
c-3 -3 -12 -4 -19 -1 -8 3 -5 6 6 6 11 1 17 -2 13 -5z m-2607 -73 c-6 -12 -17
-21 -25 -21 -11 0 -9 8 8 34 23 34 37 23 17 -13z m2737 43 c-3 -3 -12 -4 -19
-1 -8 3 -5 6 6 6 11 1 17 -2 13 -5z m5723 -4 c0 -5 -5 -10 -11 -10 -5 0 -7 5
-4 10 3 6 8 10 11 10 2 0 4 -4 4 -10z m567 4 c-3 -3 -12 -4 -19 -1 -8 3 -5 6
6 6 11 1 17 -2 13 -5z m-1157 -20 c0 -2 -7 -4 -15 -4 -8 0 -15 4 -15 10 0 5 7
7 15 4 8 -4 15 -8 15 -10z m520 6 c0 -5 -5 -10 -11 -10 -5 0 -7 5 -4 10 3 6 8
10 11 10 2 0 4 -4 4 -10z m-6897 -7 c-7 -2 -19 -2 -25 0 -7 3 -2 5 12 5 14 0
19 -2 13 -5z m3184 1 c-3 -3 -12 -4 -19 -1 -8 3 -5 6 6 6 11 1 17 -2 13 -5z
m3008 -12 c-3 -3 -11 0 -18 7 -9 10 -8 11 6 5 10 -3 15 -9 12 -12z m-6055 4
c0 -2 -11 -6 -25 -8 -13 -3 -22 -1 -19 3 5 9 44 13 44 5z m1230 -6 c0 -5 -8
-10 -17 -10 -15 0 -16 2 -3 10 19 12 20 12 20 0z m1880 0 c0 -5 -7 -7 -15 -4
-8 4 -15 8 -15 10 0 2 7 4 15 4 8 0 15 -4 15 -10z m-2193 -16 c-3 -3 -12 -4
-19 -1 -8 3 -5 6 6 6 11 1 17 -2 13 -5z m2133 -4 c10 -6 5 -9 -18 -8 -22 1
-29 4 -20 9 16 11 20 11 38 -1z m2350 6 c0 -3 -4 -8 -10 -11 -5 -3 -10 -1 -10
4 0 6 5 11 10 11 6 0 10 -2 10 -4z m-5300 -20 c0 -2 -11 -6 -25 -8 -13 -3 -22
-1 -19 3 5 9 44 13 44 5z m5710 -6 c0 -5 -7 -10 -16 -10 -8 0 -12 5 -9 10 3 6
10 10 16 10 5 0 9 -4 9 -10z m1427 4 c-3 -3 -12 -4 -19 -1 -8 3 -5 6 6 6 11 1
17 -2 13 -5z m-6474 -11 c-7 -2 -21 -2 -30 0 -10 3 -4 5 12 5 17 0 24 -2 18
-5z m64 1 c-3 -3 -12 -4 -19 -1 -8 3 -5 6 6 6 11 1 17 -2 13 -5z m-650 -10
c-3 -3 -12 -4 -19 -1 -8 3 -5 6 6 6 11 1 17 -2 13 -5z m1081 -1 c-10 -2 -26
-2 -35 0 -10 3 -2 5 17 5 19 0 27 -2 18 -5z m-3114 -24 c-3 -5 -10 -7 -15 -3
-5 3 -7 10 -3 15 3 5 10 7 15 3 5 -3 7 -10 3 -15z m9886 17 c0 -11 -19 -15
-25 -6 -3 5 1 10 9 10 9 0 16 -2 16 -4z m-2255 -16 c3 -5 -3 -10 -15 -10 -12
0 -18 5 -15 10 3 6 10 10 15 10 5 0 12 -4 15 -10z m-532 -7 c-7 -2 -19 -2 -25
0 -7 3 -2 5 12 5 14 0 19 -2 13 -5z m-2313 -13 c-20 -13 -40 -13 -40 0 0 6 12
10 28 10 21 0 24 -2 12 -10z m1110 -27 c0 -10 7 -27 15 -37 32 -42 7 -90 -25
-51 -17 21 -47 19 -60 -4 -15 -29 -12 -41 10 -41 22 0 25 -11 11 -38 -19 -34
-25 -58 -27 -106 -3 -57 -10 -79 -23 -71 -5 3 -11 -5 -13 -17 -9 -52 -31 39
-35 142 -3 95 -1 109 20 150 14 26 36 51 53 59 16 8 36 18 44 22 23 12 30 10
30 -8z m1098 -8 c-3 -3 -9 2 -12 12 -6 14 -5 15 5 6 7 -7 10 -15 7 -18z
m-2238 -5 c12 -8 11 -10 -7 -10 -13 0 -23 5 -23 10 0 13 11 13 30 0z m3063 3
c-7 -2 -19 -2 -25 0 -7 3 -2 5 12 5 14 0 19 -2 13 -5z m2230 0 c-7 -2 -19 -2
-25 0 -7 3 -2 5 12 5 14 0 19 -2 13 -5z m154 1 c-3 -3 -12 -4 -19 -1 -8 3 -5
6 6 6 11 1 17 -2 13 -5z m-5847 -19 c-7 -8 -16 -12 -21 -9 -5 3 -9 0 -9 -5 0
-6 -5 -11 -11 -11 -6 0 -9 6 -7 12 4 10 15 16 57 27 2 1 -2 -6 -9 -14z m3367
-1 c-3 -3 -12 -4 -19 -1 -8 3 -5 6 6 6 11 1 17 -2 13 -5z m120 -20 c-3 -3 -12
-4 -19 -1 -8 3 -5 6 6 6 11 1 17 -2 13 -5z m303 2 c0 -3 -4 -8 -10 -11 -5 -3
-10 -1 -10 4 0 6 5 11 10 11 6 0 10 -2 10 -4z m-7136 -15 c7 -11 -34 -22 -48
-14 -5 4 -1 10 10 14 26 10 32 10 38 0z m4909 -82 c-4 -14 0 -25 11 -31 24
-14 19 -28 -10 -28 -14 0 -23 -4 -19 -10 3 -5 2 -10 -3 -10 -5 0 -12 11 -14
25 -3 14 -1 25 3 25 5 0 9 9 9 19 0 11 6 22 13 24 6 3 13 6 14 6 0 1 -1 -9 -4
-20z m-4150 -6 c-7 -2 -19 -2 -25 0 -7 3 -2 5 12 5 14 0 19 -2 13 -5z m877 -8
c-7 -8 -16 -12 -21 -9 -13 8 -1 24 18 24 13 0 13 -3 3 -15z m-1123 -51 c-3 -3
-12 -4 -19 -1 -8 3 -5 6 6 6 11 1 17 -2 13 -5z m1147 -9 c-22 -17 -34 -19 -34
-6 0 5 8 12 18 14 32 9 36 7 16 -8z m3301 1 c-11 -8 -23 -12 -28 -9 -13 8 3
23 26 23 20 0 20 0 2 -14z m-4705 -6 c0 -5 -2 -10 -4 -10 -3 0 -8 5 -11 10 -3
6 -1 10 4 10 6 0 11 -4 11 -10z m4340 -10 c-8 -5 -24 -10 -35 -10 -12 0 -26
-5 -33 -12 -6 -6 -15 -8 -19 -4 -13 13 29 36 66 36 27 0 32 -3 21 -10z m-2803
-6 c-3 -3 -12 -4 -19 -1 -8 3 -5 6 6 6 11 1 17 -2 13 -5z m-222 -24 c3 -5 1
-10 -4 -10 -6 0 -11 5 -11 10 0 6 2 10 4 10 3 0 8 -4 11 -10z m-2025 -20 c0
-5 -5 -10 -11 -10 -5 0 -7 5 -4 10 3 6 8 10 11 10 2 0 4 -4 4 -10z m1997 4
c-3 -3 -12 -4 -19 -1 -8 3 -5 6 6 6 11 1 17 -2 13 -5z m138 -4 c3 -5 1 -10 -4
-10 -6 0 -11 5 -11 10 0 6 2 10 4 10 3 0 8 -4 11 -10z m35 -15 c0 -8 -4 -15
-10 -15 -5 0 -7 7 -4 15 4 8 8 15 10 15 2 0 4 -7 4 -15z m-1323 -21 c-3 -3
-12 -4 -19 -1 -8 3 -5 6 6 6 11 1 17 -2 13 -5z m913 -30 c0 -2 -7 -4 -15 -4
-8 0 -15 4 -15 10 0 5 7 7 15 4 8 -4 15 -8 15 -10z m2250 12 c0 -3 -4 -8 -10
-11 -5 -3 -10 -1 -10 4 0 6 5 11 10 11 6 0 10 -2 10 -4z m-4227 -13 c-7 -2
-19 -2 -25 0 -7 3 -2 5 12 5 14 0 19 -2 13 -5z m1090 0 c-7 -2 -19 -2 -25 0
-7 3 -2 5 12 5 14 0 19 -2 13 -5z m-176 -49 c-3 -3 -12 -4 -19 -1 -8 3 -5 6 6
6 11 1 17 -2 13 -5z m100 0 c-3 -3 -12 -4 -19 -1 -8 3 -5 6 6 6 11 1 17 -2 13
-5z m328 -24 c-3 -5 -10 -10 -16 -10 -5 0 -9 5 -9 10 0 6 7 10 16 10 8 0 12
-4 9 -10z m-768 -6 c-3 -3 -12 -4 -19 -1 -8 3 -5 6 6 6 11 1 17 -2 13 -5z
m1150 0 c-3 -3 -12 -4 -19 -1 -8 3 -5 6 6 6 11 1 17 -2 13 -5z m560 -10 c-3
-3 -12 -4 -19 -1 -8 3 -5 6 6 6 11 1 17 -2 13 -5z m-1542 -14 c-27 -12 -43
-12 -25 0 8 5 22 9 30 9 10 0 8 -3 -5 -9z m1115 0 c0 -5 -7 -10 -16 -10 -8 0
-12 5 -9 10 3 6 10 10 16 10 5 0 9 -4 9 -10z m-1987 -17 c-7 -2 -19 -2 -25 0
-7 3 -2 5 12 5 14 0 19 -2 13 -5z m1934 -9 c-3 -3 -12 -4 -19 -1 -8 3 -5 6 6
6 11 1 17 -2 13 -5z m-1747 -8 c0 -2 -7 -6 -15 -10 -8 -3 -15 -1 -15 4 0 6 7
10 15 10 8 0 15 -2 15 -4z m1547 -2 c-3 -3 -12 -4 -19 -1 -8 3 -5 6 6 6 11 1
17 -2 13 -5z m8100 -20 c-3 -3 -12 -4 -19 -1 -8 3 -5 6 6 6 11 1 17 -2 13 -5z
m-8307 -28 c0 -2 -7 -7 -16 -10 -8 -3 -12 -2 -9 4 6 10 25 14 25 6z m140 0 c0
-9 -30 -14 -35 -6 -4 6 3 10 14 10 12 0 21 -2 21 -4z m-1173 -26 c1 -14 -4
-20 -18 -20 -24 0 -25 16 -1 29 9 6 17 11 17 11 1 0 1 -9 2 -20z m1436 -17
c-7 -2 -19 -2 -25 0 -7 3 -2 5 12 5 14 0 19 -2 13 -5z m-1103 -13 c0 -5 -4
-10 -10 -10 -5 0 -10 5 -10 10 0 6 5 10 10 10 6 0 10 -4 10 -10z m487 -6 c-3
-3 -12 -4 -19 -1 -8 3 -5 6 6 6 11 1 17 -2 13 -5z m-340 -20 c-3 -3 -12 -4
-19 -1 -8 3 -5 6 6 6 11 1 17 -2 13 -5z m1943 -25 c0 -11 -3 -11 -24 -3 -23 9
-20 23 4 17 11 -3 20 -9 20 -14z m-665 1 c3 -5 1 -10 -4 -10 -6 0 -11 5 -11
10 0 6 2 10 4 10 3 0 8 -4 11 -10z m-2008 -6 c-3 -3 -12 -4 -19 -1 -8 3 -5 6
6 6 11 1 17 -2 13 -5z m1036 -11 c-7 -2 -21 -2 -30 0 -10 3 -4 5 12 5 17 0 24
-2 18 -5z m927 -3 c-8 -5 -19 -10 -25 -10 -5 0 -3 5 5 10 8 5 20 10 25 10 6 0
3 -5 -5 -10z m175 0 c3 -5 1 -10 -4 -10 -6 0 -11 5 -11 10 0 6 2 10 4 10 3 0
8 -4 11 -10z m42 4 c-3 -3 -12 -4 -19 -1 -8 3 -5 6 6 6 11 1 17 -2 13 -5z
m879 -5 c32 -6 72 -17 87 -26 15 -8 34 -12 41 -10 8 3 24 -2 37 -11 13 -9 32
-15 42 -14 9 2 17 -2 17 -7 0 -15 -206 -1 -355 23 -22 4 -52 8 -66 10 -52 6
-56 20 -9 32 58 16 132 17 206 3z m-1549 -5 c-3 -3 -12 -4 -19 -1 -8 3 -5 6 6
6 11 1 17 -2 13 -5z m546 -1 c-7 -2 -19 -2 -25 0 -7 3 -2 5 12 5 14 0 19 -2
13 -5z m-628 -13 c3 -5 -1 -10 -10 -10 -9 0 -13 5 -10 10 3 6 8 10 10 10 2 0
7 -4 10 -10z m-1838 -16 c-3 -3 -12 -4 -19 -1 -8 3 -5 6 6 6 11 1 17 -2 13 -5z
m450 -10 c-3 -3 -12 -4 -19 -1 -8 3 -5 6 6 6 11 1 17 -2 13 -5z m583 -4 c-8
-5 -19 -10 -25 -10 -5 0 -3 5 5 10 8 5 20 10 25 10 6 0 3 -5 -5 -10z m745 0
c3 -5 -3 -10 -15 -10 -12 0 -18 5 -15 10 3 6 10 10 15 10 5 0 12 -4 15 -10z
m458 3 c-13 -2 -35 -2 -50 0 -16 2 -5 4 22 4 28 0 40 -2 28 -4z m317 -1 c0 -4
-10 -9 -22 -9 -18 -2 -20 0 -8 7 18 12 30 13 30 2z m-2500 -6 c0 -2 -9 -6 -20
-9 -11 -3 -18 -1 -14 4 5 9 34 13 34 5z m1867 -2 c-3 -3 -12 -4 -19 -1 -8 3
-5 6 6 6 11 1 17 -2 13 -5z m-1620 -10 c-3 -3 -12 -4 -19 -1 -8 3 -5 6 6 6 11
1 17 -2 13 -5z m2026 -1 c-7 -2 -19 -2 -25 0 -7 3 -2 5 12 5 14 0 19 -2 13 -5z
m-43 -13 c0 -5 -2 -10 -4 -10 -3 0 -8 5 -11 10 -3 6 -1 10 4 10 6 0 11 -4 11
-10z m-625 -28 c-3 -3 -11 0 -18 7 -9 10 -8 11 6 5 10 -3 15 -9 12 -12z m295
8 c-20 -13 -33 -13 -25 0 3 6 14 10 23 10 15 0 15 -2 2 -10z m-1007 -7 c-7 -2
-21 -2 -30 0 -10 3 -4 5 12 5 17 0 24 -2 18 -5z m3704 1 c-3 -3 -12 -4 -19 -1
-8 3 -5 6 6 6 11 1 17 -2 13 -5z m-4040 -10 c-3 -3 -12 -4 -19 -1 -8 3 -5 6 6
6 11 1 17 -2 13 -5z m160 0 c-3 -3 -12 -4 -19 -1 -8 3 -5 6 6 6 11 1 17 -2 13
-5z m823 2 c0 -3 -4 -8 -10 -11 -5 -3 -10 -1 -10 4 0 6 5 11 10 11 6 0 10 -2
10 -4z m710 -6 c0 -5 -10 -10 -22 -10 -19 0 -20 2 -8 10 19 13 30 13 30 0z
m537 4 c-3 -3 -12 -4 -19 -1 -8 3 -5 6 6 6 11 1 17 -2 13 -5z m-1980 -10 c-3
-3 -12 -4 -19 -1 -8 3 -5 6 6 6 11 1 17 -2 13 -5z m148 -4 c3 -5 -1 -10 -9
-10 -8 0 -18 5 -21 10 -3 6 1 10 9 10 8 0 18 -4 21 -10z m875 0 c0 -5 -8 -10
-17 -10 -15 0 -16 2 -3 10 19 12 20 12 20 0z m330 0 c0 -5 13 -10 29 -10 16 0
34 -7 41 -15 14 -17 8 -18 -39 -9 -30 6 -65 44 -41 44 5 0 10 -4 10 -10z
m-685 -10 c3 -6 -1 -7 -9 -4 -18 7 -21 14 -7 14 6 0 13 -4 16 -10z m290 0 c-3
-5 -16 -10 -28 -9 -21 0 -21 1 -2 9 28 12 37 12 30 0z m562 4 c-3 -3 -12 -4
-19 -1 -8 3 -5 6 6 6 11 1 17 -2 13 -5z m-1920 -20 c-3 -3 -12 -4 -19 -1 -8 3
-5 6 6 6 11 1 17 -2 13 -5z m1163 -3 c0 -4 -11 -6 -25 -3 -14 2 -25 6 -25 8 0
2 11 4 25 4 14 0 25 -4 25 -9z m375 -10 c-3 -6 -11 -11 -16 -11 -5 0 -4 6 3
14 14 16 24 13 13 -3z m123 12 c-10 -2 -26 -2 -35 0 -10 3 -2 5 17 5 19 0 27
-2 18 -5z m535 0 c-7 -2 -19 -2 -25 0 -7 3 -2 5 12 5 14 0 19 -2 13 -5z m667
3 c0 -3 -4 -8 -10 -11 -5 -3 -10 -1 -10 4 0 6 5 11 10 11 6 0 10 -2 10 -4z
m-260 -16 c0 -5 -4 -10 -10 -10 -5 0 -10 5 -10 10 0 6 5 10 10 10 6 0 10 -4
10 -10z m-2673 -6 c-3 -3 -12 -4 -19 -1 -8 3 -5 6 6 6 11 1 17 -2 13 -5z
m1538 -14 c-3 -5 3 -10 15 -10 12 0 18 -4 15 -10 -3 -5 -19 -10 -35 -10 -29 0
-29 1 -13 20 18 21 28 27 18 10z m1110 0 c3 -5 1 -10 -4 -10 -6 0 -11 5 -11
10 0 6 2 10 4 10 3 0 8 -4 11 -10z m6818 3 c-7 -2 -19 -2 -25 0 -7 3 -2 5 12
5 14 0 19 -2 13 -5z m-5396 -9 c-3 -3 -12 -4 -19 -1 -8 3 -5 6 6 6 11 1 17 -2
13 -5z m-3000 -10 c-3 -3 -12 -4 -19 -1 -8 3 -5 6 6 6 11 1 17 -2 13 -5z
m1670 0 c-3 -3 -12 -4 -19 -1 -8 3 -5 6 6 6 11 1 17 -2 13 -5z m-2117 -8 c0
-9 -30 -14 -35 -6 -4 6 3 10 14 10 12 0 21 -2 21 -4z m1055 -6 c-3 -5 -16 -10
-28 -10 -18 0 -19 2 -7 10 20 13 43 13 35 0z m-1298 -6 c-3 -3 -12 -4 -19 -1
-8 3 -5 6 6 6 11 1 17 -2 13 -5z m841 -10 c-9 -9 -22 -14 -30 -11 -8 3 -4 8
12 15 35 15 37 14 18 -4z m1478 -26 c-9 -12 -16 -17 -16 -10 0 18 24 54 28 42
2 -5 -4 -20 -12 -32z m-2833 15 c-7 -2 -19 -2 -25 0 -7 3 -2 5 12 5 14 0 19
-2 13 -5z m205 2 c-11 -11 -60 -16 -53 -5 3 5 18 10 32 10 15 0 24 -2 21 -5z
m782 -11 c0 -2 -13 -4 -30 -4 -16 0 -30 4 -30 8 0 5 14 7 30 4 17 -2 30 -6 30
-8z m1095 6 c3 -6 -1 -7 -9 -4 -18 7 -21 14 -7 14 6 0 13 -4 16 -10z m-2400
-10 c3 -5 1 -10 -4 -10 -6 0 -11 5 -11 10 0 6 2 10 4 10 3 0 8 -4 11 -10z
m1875 -10 c0 -5 -5 -10 -11 -10 -5 0 -7 5 -4 10 3 6 8 10 11 10 2 0 4 -4 4
-10z m-1551 -21 c-16 -10 -23 -4 -14 10 3 6 11 8 17 5 6 -4 5 -9 -3 -15z m868
15 c-3 -3 -12 -4 -19 -1 -8 3 -5 6 6 6 11 1 17 -2 13 -5z m800 -20 c-3 -3 -12
-4 -19 -1 -8 3 -5 6 6 6 11 1 17 -2 13 -5z m5773 -4 c0 -5 -4 -10 -10 -10 -5
0 -10 5 -10 10 0 6 5 10 10 10 6 0 10 -4 10 -10z m-4813 -14 c0 -8 -6 -12 -14
-9 -7 3 -13 9 -13 14 0 5 6 9 13 9 8 0 14 -6 14 -14z m-287 -5 c0 -5 -9 -11
-19 -14 -14 -3 -18 -1 -14 9 6 15 33 19 33 5z m-2250 -5 c0 -2 -7 -7 -16 -10
-8 -3 -12 -2 -9 4 6 10 25 14 25 6z m746 -5 c-6 -9 -56 -22 -56 -14 0 4 40 21
53 22 5 1 6 -3 3 -8z m131 3 c-3 -3 -12 -4 -19 -1 -8 3 -5 6 6 6 11 1 17 -2
13 -5z m-1322 -14 c3 -5 -1 -10 -9 -10 -9 0 -16 5 -16 10 0 6 4 10 9 10 6 0
13 -4 16 -10z m1489 1 c3 -5 -1 -11 -9 -14 -9 -4 -12 -1 -8 9 6 16 10 17 17 5z
m1653 -23 c-3 -8 -6 -5 -6 6 -1 11 2 17 5 13 3 -3 4 -12 1 -19z m-932 2 c-3
-5 -10 -10 -16 -10 -5 0 -9 5 -9 10 0 6 7 10 16 10 8 0 12 -4 9 -10z m-280
-10 c3 -5 1 -10 -4 -10 -6 0 -11 5 -11 10 0 6 2 10 4 10 3 0 8 -4 11 -10z
m-1865 -4 c0 -2 -9 -6 -20 -9 -11 -3 -18 -1 -14 4 5 9 34 13 34 5z m407 -2
c-3 -3 -12 -4 -19 -1 -8 3 -5 6 6 6 11 1 17 -2 13 -5z m1520 -10 c-3 -3 -12
-4 -19 -1 -8 3 -5 6 6 6 11 1 17 -2 13 -5z m1140 -16 c-3 -8 -6 -5 -6 6 -1 11
2 17 5 13 3 -3 4 -12 1 -19z m-1857 2 c0 -5 -5 -10 -11 -10 -5 0 -7 5 -4 10 3
6 8 10 11 10 2 0 4 -4 4 -10z m1530 0 c0 -5 -5 -10 -11 -10 -5 0 -7 5 -4 10 3
6 8 10 11 10 2 0 4 -4 4 -10z m-1090 -4 c0 -3 -4 -8 -10 -11 -5 -3 -10 -1 -10
4 0 6 5 11 10 11 6 0 10 -2 10 -4z m790 -6 c0 -5 -2 -10 -4 -10 -3 0 -8 5 -11
10 -3 6 -1 10 4 10 6 0 11 -4 11 -10z m237 4 c-3 -3 -12 -4 -19 -1 -8 3 -5 6
6 6 11 1 17 -2 13 -5z m263 -10 c0 -2 -9 -4 -20 -4 -11 0 -20 4 -20 9 0 5 9 7
20 4 11 -3 20 -7 20 -9z m-1393 0 c-3 -3 -12 -4 -19 -1 -8 3 -5 6 6 6 11 1 17
-2 13 -5z m-332 -24 c3 -5 1 -10 -4 -10 -6 0 -11 5 -11 10 0 6 2 10 4 10 3 0
8 -4 11 -10z m482 4 c-3 -3 -12 -4 -19 -1 -8 3 -5 6 6 6 11 1 17 -2 13 -5z
m-1592 -14 c3 -5 1 -10 -4 -10 -6 0 -11 5 -11 10 0 6 2 10 4 10 3 0 8 -4 11
-10z m890 -18 c-3 -3 -11 0 -18 7 -9 10 -8 11 6 5 10 -3 15 -9 12 -12z m886
-5 c-13 -13 -26 -3 -16 12 3 6 11 8 17 5 6 -4 6 -10 -1 -17z m-1531 3 c0 -5
-7 -10 -16 -10 -8 0 -12 5 -9 10 3 6 10 10 16 10 5 0 9 -4 9 -10z m2075 1 c3
-5 1 -12 -5 -16 -5 -3 -10 1 -10 9 0 18 6 21 15 7z m-2350 -11 c-3 -5 -14 -10
-23 -10 -15 0 -15 2 -2 10 20 13 33 13 25 0z m1312 4 c-3 -3 -12 -4 -19 -1 -8
3 -5 6 6 6 11 1 17 -2 13 -5z m983 -4 c-20 -13 -33 -13 -25 0 3 6 14 10 23 10
15 0 15 -2 2 -10z m340 0 c0 -5 -8 -10 -17 -10 -15 0 -16 2 -3 10 19 12 20 12
20 0z m-1290 -10 c0 -5 -5 -10 -11 -10 -5 0 -7 5 -4 10 3 6 8 10 11 10 2 0 4
-4 4 -10z m-875 -10 c-3 -5 -12 -10 -18 -10 -7 0 -6 4 3 10 19 12 23 12 15 0z
m1062 4 c-3 -3 -12 -4 -19 -1 -8 3 -5 6 6 6 11 1 17 -2 13 -5z m-1017 -8 c0
-2 -7 -7 -16 -10 -8 -3 -12 -2 -9 4 6 10 25 14 25 6z m1065 -6 c3 -5 -1 -10
-9 -10 -9 0 -16 5 -16 10 0 6 4 10 9 10 6 0 13 -4 16 -10z m145 0 c0 -5 -4
-10 -10 -10 -5 0 -10 5 -10 10 0 6 5 10 10 10 6 0 10 -4 10 -10z m-1855 -10
c3 -5 1 -10 -4 -10 -6 0 -11 5 -11 10 0 6 2 10 4 10 3 0 8 -4 11 -10z m135 0
c0 -5 -7 -10 -16 -10 -8 0 -12 5 -9 10 3 6 10 10 16 10 5 0 9 -4 9 -10z m2120
6 c0 -2 -7 -9 -15 -16 -12 -10 -15 -10 -15 4 0 9 7 16 15 16 8 0 15 -2 15 -4z
m140 0 c0 -2 -7 -6 -15 -10 -8 -3 -15 -1 -15 4 0 6 7 10 15 10 8 0 15 -2 15
-4z m427 -2 c-3 -3 -12 -4 -19 -1 -8 3 -5 6 6 6 11 1 17 -2 13 -5z m-2097 -8
c0 -3 -4 -8 -10 -11 -5 -3 -10 -1 -10 4 0 6 5 11 10 11 6 0 10 -2 10 -4z
m2040 -16 c0 -5 -5 -10 -11 -10 -5 0 -7 5 -4 10 3 6 8 10 11 10 2 0 4 -4 4
-10z m150 -5 c-7 -8 -17 -12 -22 -9 -6 4 -5 10 3 15 22 14 33 10 19 -6z
m-2085 -5 c3 -6 -4 -10 -17 -10 -18 0 -20 2 -8 10 19 12 18 12 25 0z m90 -1
c10 -15 2 -19 -23 -12 -12 3 -19 9 -16 14 7 12 31 11 39 -2z m1185 1 c0 -5 -4
-10 -10 -10 -5 0 -10 5 -10 10 0 6 5 10 10 10 6 0 10 -4 10 -10z m8030 0 c0
-5 -11 -10 -25 -10 -14 0 -25 5 -25 10 0 6 11 10 25 10 14 0 25 -4 25 -10z
m-7135 -10 c-28 -12 -37 -12 -30 0 3 6 16 10 28 9 21 0 21 -1 2 -9z m-1852
-38 c-3 -7 -9 -10 -12 -5 -3 4 -10 11 -15 15 -4 4 1 6 12 5 12 -1 18 -6 15
-15z m804 12 c-3 -3 -12 -4 -19 -1 -8 3 -5 6 6 6 11 1 17 -2 13 -5z m-1597
-24 c0 -5 -4 -10 -10 -10 -5 0 -10 5 -10 10 0 6 5 10 10 10 6 0 10 -4 10 -10z
m2580 0 c0 -5 -7 -10 -16 -10 -8 0 -12 5 -9 10 3 6 10 10 16 10 5 0 9 -4 9
-10z m-2207 -10 c7 0 6 -4 -3 -10 -12 -8 -12 -10 -1 -10 8 0 12 -2 9 -5 -3 -3
-20 1 -38 9 -21 9 -28 15 -19 19 8 3 20 4 27 1 8 -2 19 -4 25 -4z m1257 6 c0
-3 -4 -8 -10 -11 -5 -3 -10 -1 -10 4 0 6 5 11 10 11 6 0 10 -2 10 -4z m365 -6
c-3 -5 -10 -10 -16 -10 -5 0 -9 5 -9 10 0 6 7 10 16 10 8 0 12 -4 9 -10z
m-970 -10 c-3 -5 -12 -10 -18 -10 -7 0 -6 4 3 10 19 12 23 12 15 0z m389 1 c3
-5 0 -11 -8 -14 -15 -6 -26 1 -26 15 0 11 27 10 34 -1z m-349 -11 c3 -5 -1
-10 -10 -10 -9 0 -13 5 -10 10 3 6 8 10 10 10 2 0 7 -4 10 -10z m7255 0 c0 -5
-7 -10 -15 -10 -8 0 -15 5 -15 10 0 6 7 10 15 10 8 0 15 -4 15 -10z m-8516
-15 c-4 -8 -8 -15 -10 -15 -2 0 -4 7 -4 15 0 8 4 15 10 15 5 0 7 -7 4 -15z
m676 11 c0 -3 -4 -8 -10 -11 -5 -3 -10 -1 -10 4 0 6 5 11 10 11 6 0 10 -2 10
-4z m2090 -6 c0 -5 -4 -10 -10 -10 -5 0 -10 5 -10 10 0 6 5 10 10 10 6 0 10
-4 10 -10z m-2613 -15 c8 -21 2 -24 -25 -14 -13 5 -20 13 -17 19 9 15 35 12
42 -5z m1333 5 c0 -5 -4 -10 -10 -10 -5 0 -10 5 -10 10 0 6 5 10 10 10 6 0 10
-4 10 -10z m680 6 c0 -2 -7 -7 -16 -10 -8 -3 -12 -2 -9 4 6 10 25 14 25 6z
m120 -6 c0 -5 -2 -10 -4 -10 -3 0 -8 5 -11 10 -3 6 -1 10 4 10 6 0 11 -4 11
-10z m5217 4 c-3 -3 -12 -4 -19 -1 -8 3 -5 6 6 6 11 1 17 -2 13 -5z m-6617
-14 c0 -5 -5 -10 -11 -10 -5 0 -7 5 -4 10 3 6 8 10 11 10 2 0 4 -4 4 -10z
m-622 -17 c-2 -10 -14 -20 -27 -21 -15 -2 -21 0 -16 7 3 6 11 8 17 5 7 -5 9
-1 5 9 -4 11 -1 17 9 17 9 0 14 -7 12 -17z m2432 2 c0 -8 -7 -15 -15 -15 -13
0 -14 3 -3 15 16 18 18 18 18 0z m4995 -25 c-3 -5 -10 -10 -16 -10 -5 0 -9 5
-9 10 0 6 7 10 16 10 8 0 12 -4 9 -10z m485 -10 c0 -5 -5 -10 -11 -10 -5 0 -7
5 -4 10 3 6 8 10 11 10 2 0 4 -4 4 -10z m-6840 -16 c0 -8 -4 -12 -10 -9 -5 3
-10 10 -10 16 0 5 5 9 10 9 6 0 10 -7 10 -16z m7608 -6 c-3 -7 -11 -13 -18
-13 -7 0 -15 6 -17 13 -3 7 4 12 17 12 13 0 20 -5 18 -12z m-8658 -12 c0 -2
-9 -6 -20 -9 -11 -3 -18 -1 -14 4 5 9 34 13 34 5z m2700 -16 c0 -5 -5 -10 -11
-10 -5 0 -7 5 -4 10 3 6 8 10 11 10 2 0 4 -4 4 -10z m-1910 -20 c0 -5 -2 -10
-4 -10 -3 0 -8 5 -11 10 -3 6 -1 10 4 10 6 0 11 -4 11 -10z m1310 -10 c0 -5
-7 -10 -16 -10 -8 0 -12 5 -9 10 3 6 10 10 16 10 5 0 9 -4 9 -10z m-1750 -26
c0 -2 -7 -4 -15 -4 -8 0 -15 4 -15 10 0 5 7 7 15 4 8 -4 15 -8 15 -10z m1370
6 c0 -5 -2 -10 -4 -10 -3 0 -8 5 -11 10 -3 6 -1 10 4 10 6 0 11 -4 11 -10z
m7820 0 c0 -5 -5 -10 -11 -10 -5 0 -7 5 -4 10 3 6 8 10 11 10 2 0 4 -4 4 -10z
m-9590 -10 c0 -5 -4 -10 -10 -10 -5 0 -10 5 -10 10 0 6 5 10 10 10 6 0 10 -4
10 -10z m1505 0 c3 -5 1 -10 -4 -10 -6 0 -11 5 -11 10 0 6 2 10 4 10 3 0 8 -4
11 -10z m1075 6 c0 -2 -7 -7 -16 -10 -8 -3 -12 -2 -9 4 6 10 25 14 25 6z
m-1890 -16 c0 -5 -5 -10 -11 -10 -5 0 -7 5 -4 10 3 6 8 10 11 10 2 0 4 -4 4
-10z m7623 3 c-7 -2 -19 -2 -25 0 -7 3 -2 5 12 5 14 0 19 -2 13 -5z m-5678
-13 c3 -5 1 -10 -4 -10 -6 0 -11 5 -11 10 0 6 2 10 4 10 3 0 8 -4 11 -10z
m-1031 -9 c3 -5 -8 -11 -26 -15 -34 -7 -44 -3 -33 13 8 13 52 15 59 2z m3596
-1 c0 -5 -7 -10 -16 -10 -8 0 -12 5 -9 10 3 6 10 10 16 10 5 0 9 -4 9 -10z
m-3708 -32 c-7 -7 -12 -8 -12 -2 0 14 12 26 19 19 2 -3 -1 -11 -7 -17z m-165
-4 c-3 -3 -12 -4 -19 -1 -8 3 -5 6 6 6 11 1 17 -2 13 -5z m6160 -20 c-9 -9
-28 6 -21 18 4 6 10 6 17 -1 6 -6 8 -13 4 -17z m-6797 -3 c0 -6 -9 -9 -20 -8
-11 1 -20 5 -20 9 0 4 9 8 20 8 11 0 20 -4 20 -9z m-956 -16 c-4 -8 -13 -15
-21 -15 -8 0 -12 4 -8 9 3 5 -3 12 -12 14 -10 3 -4 5 14 6 25 1 31 -2 27 -14z
m9163 9 c-3 -3 -12 -4 -19 -1 -8 3 -5 6 6 6 11 1 17 -2 13 -5z m-947 -14 c0
-5 -7 -10 -15 -10 -8 0 -15 5 -15 10 0 6 7 10 15 10 8 0 15 -4 15 -10z m-6880
-10 c0 -5 -7 -10 -15 -10 -8 0 -15 5 -15 10 0 6 7 10 15 10 8 0 15 -4 15 -10z
m3927 4 c-3 -3 -12 -4 -19 -1 -8 3 -5 6 6 6 11 1 17 -2 13 -5z m-3757 -13 c0
-11 -40 -22 -52 -15 -5 3 -6 10 -3 15 8 12 55 12 55 0z m175 -11 c3 -5 -1 -10
-9 -10 -9 0 -16 5 -16 10 0 6 4 10 9 10 6 0 13 -4 16 -10z m45 0 c0 -5 -5 -10
-11 -10 -5 0 -7 5 -4 10 3 6 8 10 11 10 2 0 4 -4 4 -10z m-1073 -6 c-3 -3 -12
-4 -19 -1 -8 3 -5 6 6 6 11 1 17 -2 13 -5z m250 0 c-3 -3 -12 -4 -19 -1 -8 3
-5 6 6 6 11 1 17 -2 13 -5z"/>
<path d="M6185 3971 c-3 -5 -1 -12 5 -16 5 -3 10 1 10 9 0 18 -6 21 -15 7z"/>
<path d="M4475 3910 c3 -5 -1 -10 -9 -10 -9 0 -16 -9 -16 -20 0 -14 6 -20 23
-19 16 1 18 2 5 6 -27 7 -22 23 7 23 28 0 34 15 9 24 -22 8 -26 8 -19 -4z"/>
<path d="M3597 2243 c-7 -36 -2 -41 13 -13 8 14 8 26 2 32 -6 6 -11 -1 -15
-19z"/>
<path d="M3715 1900 c-4 -6 5 -10 19 -10 14 0 26 -5 26 -12 0 -6 3 -8 7 -4 5
4 -1 14 -11 22 -23 17 -33 18 -41 4z"/>
<path d="M3480 1880 c0 -5 5 -10 10 -10 6 0 10 5 10 10 0 6 -4 10 -10 10 -5 0
-10 -4 -10 -10z"/>
<path d="M3780 1858 c0 -9 5 -20 11 -23 17 -11 20 0 4 21 -13 17 -14 17 -15 2z"/>
<path d="M4185 1830 c3 -5 13 -10 21 -10 8 0 14 5 14 10 0 6 -9 10 -21 10 -11
0 -17 -4 -14 -10z"/>
<path d="M3765 1781 c-55 -42 -100 -58 -120 -41 -9 8 -11 5 -7 -15 2 -14 6
-25 8 -25 11 0 94 43 94 49 0 3 18 17 40 31 22 14 40 28 40 32 0 11 0 11 -55
-31z"/>
<path d="M3636 1781 c-4 -7 -5 -15 -2 -18 9 -9 19 4 14 18 -4 11 -6 11 -12 0z"/>
<path d="M4300 1767 c0 -13 40 -37 61 -37 17 0 0 19 -32 35 -24 13 -29 13 -29
2z"/>
<path d="M3844 1734 c-1 -14 2 -21 9 -17 6 4 7 1 3 -6 -5 -8 -19 -10 -37 -6
-33 8 -40 -9 -10 -25 30 -16 44 -11 69 20 l23 29 -28 15 c-27 13 -28 13 -29
-10z"/>
<path d="M3510 1730 c0 -28 33 -130 42 -130 5 0 7 8 4 18 -2 9 -10 37 -17 62
-13 47 -29 75 -29 50z"/>
<path d="M3460 1600 c-8 -5 -13 -10 -10 -11 3 0 13 -2 23 -4 9 -2 17 3 17 11
0 16 -9 18 -30 4z"/>
<path d="M3103 1589 c-18 -5 -48 -13 -65 -17 -41 -10 -52 -54 -18 -72 31 -16
52 -5 99 50 43 51 41 55 -16 39z"/>
<path d="M3718 1588 c-9 -8 -18 -35 -21 -63 -3 -32 -12 -55 -25 -65 -15 -12
-17 -21 -10 -39 l8 -24 26 24 c14 13 42 45 61 72 28 37 33 50 24 61 -8 10 -9
16 -1 21 5 3 10 10 10 16 0 13 -54 11 -72 -3z"/>
<path d="M4455 1560 c-3 -5 1 -10 9 -10 9 0 16 5 16 10 0 6 -4 10 -9 10 -6 0
-13 -4 -16 -10z"/>
<path d="M3640 1540 c0 -11 5 -20 10 -20 6 0 10 9 10 20 0 11 -4 20 -10 20 -5
0 -10 -9 -10 -20z"/>
<path d="M4200 1534 c0 -8 5 -12 10 -9 6 3 10 10 10 16 0 5 -4 9 -10 9 -5 0
-10 -7 -10 -16z"/>
<path d="M3572 1498 c2 -13 11 -24 21 -26 15 -3 16 0 6 22 -15 32 -32 34 -27
4z"/>
<path d="M3789 1483 c-13 -16 -12 -17 4 -4 16 13 21 21 13 21 -2 0 -10 -8 -17
-17z"/>
<path d="M4145 1490 c3 -5 8 -10 11 -10 2 0 4 5 4 10 0 6 -5 10 -11 10 -5 0
-7 -4 -4 -10z"/>
<path d="M3485 1474 l-40 -12 33 -1 32 -1 -17 -27 c-10 -16 -23 -34 -30 -41
-20 -21 -16 -29 15 -30 15 -1 52 -5 82 -9 l55 -8 -40 -8 c-39 -7 -217 -4 -490
7 -102 4 -75 0 125 -19 140 -13 271 -28 290 -32 46 -12 113 5 138 35 19 22 19
26 6 66 -13 37 -18 42 -39 38 -17 -3 -32 4 -52 25 -27 29 -29 29 -68 17z"/>
<path d="M3910 1480 c0 -5 5 -10 10 -10 6 0 10 5 10 10 0 6 -4 10 -10 10 -5 0
-10 -4 -10 -10z"/>
<path d="M3722 1416 c-23 -25 -42 -48 -42 -51 0 -11 79 57 85 73 11 28 -2 22
-43 -22z"/>
<path d="M4200 1440 c-8 -5 -10 -10 -5 -10 6 0 17 5 25 10 8 5 11 10 5 10 -5
0 -17 -5 -25 -10z"/>
<path d="M4120 1370 c0 -5 10 -10 23 -10 12 -1 33 -7 47 -15 14 -8 49 -14 80
-13 l55 1 -60 6 c-33 4 -74 14 -92 24 -36 19 -53 22 -53 7z"/>
<path d="M4170 1221 c0 -13 30 -22 51 -16 11 4 19 11 19 17 0 7 -5 6 -14 -1
-11 -9 -20 -10 -35 -1 -12 6 -21 7 -21 1z"/>
<path d="M4160 1120 c0 -5 5 -10 10 -10 6 0 10 5 10 10 0 6 -4 10 -10 10 -5 0
-10 -4 -10 -10z"/>
<path d="M4710 6366 c0 -8 -6 -16 -12 -19 -7 -2 -10 -7 -7 -11 3 -3 16 5 29
19 19 21 21 25 7 25 -9 0 -17 -6 -17 -14z"/>
<path d="M4339 6181 c-4 -22 -8 -23 -80 -24 -42 0 -82 4 -89 8 -8 5 -11 4 -7
-2 7 -11 -106 -63 -138 -63 -11 0 -27 -5 -35 -11 -16 -11 355 -4 414 7 l28 6
-37 30 c-20 17 -40 40 -45 52 -7 21 -8 20 -11 -3z"/>
<path d="M2114 6176 c-11 -8 -37 -17 -57 -21 -20 -4 -41 -13 -48 -21 -6 -8
-17 -14 -25 -14 -28 0 -65 -24 -70 -47 -10 -36 -39 -47 -90 -33 -41 12 -50 10
-121 -18 -87 -33 -169 -46 -224 -33 -21 5 -43 4 -52 -1 -11 -6 -40 -1 -89 16
-90 31 -201 44 -222 27 -8 -7 -20 -10 -26 -6 -19 12 -66 -14 -67 -37 -3 -28
-38 -55 -83 -63 -19 -4 -42 -12 -50 -19 -8 -7 -69 -20 -135 -29 -66 -9 -133
-23 -150 -31 -44 -22 -140 -39 -220 -39 -79 0 -324 36 -354 52 -11 6 -22 11
-25 11 -3 0 -6 -75 -6 -167 l0 -168 97 3 c54 1 247 9 428 17 766 35 1106 49
1820 75 303 12 330 14 322 27 -3 5 -8 90 -11 191 l-7 182 75 0 76 0 0 33 0 33
-169 -2 c-100 -1 -177 -6 -189 -13 -37 -20 -91 -13 -118 14 -16 16 -36 25 -56
25 -21 0 -43 11 -69 35 -43 39 -55 42 -85 21z"/>
<path d="M3300 6081 c-15 -30 3 -34 87 -24 l68 9 -50 12 c-27 6 -60 14 -72 18
-15 4 -24 0 -33 -15z"/>
<path d="M8969 6050 c-65 -33 -87 -37 -150 -26 -70 12 -142 -28 -155 -87 -12
-55 0 -57 295 -57 146 0 271 4 277 8 23 15 26 50 6 70 -11 11 -23 21 -28 23
-5 2 -22 21 -37 42 -25 33 -33 37 -72 37 -24 0 -47 5 -50 10 -9 15 -25 12 -86
-20z"/>
<path d="M8109 5920 c-21 -17 -22 -21 -9 -30 17 -11 54 -13 88 -4 22 6 22 7
-10 30 -39 29 -40 29 -69 4z"/>
<path d="M7235 5903 c-27 -1 -79 -6 -115 -10 -61 -7 -57 -8 65 -13 160 -7 277
0 283 18 4 12 -90 14 -233 5z"/>
<path d="M10135 5880 c-137 -4 -256 -8 -263 -9 -10 -1 -13 -25 -12 -103 1 -57
1 -110 1 -119 -1 -14 -18 -18 -93 -23 -51 -4 -106 -9 -121 -12 -25 -5 -26 -7
-12 -18 13 -9 19 -39 26 -126 12 -159 12 -160 54 -160 39 0 51 -12 30 -30 -8
-7 -15 -19 -15 -28 0 -8 -11 -25 -25 -38 -28 -25 -34 -71 -10 -80 14 -6 151 6
325 27 47 5 121 11 165 13 44 2 110 9 148 16 67 12 67 12 67 45 0 31 -1 32
-38 30 -20 -1 -47 -5 -58 -9 -14 -4 -28 -1 -38 9 -32 32 -12 65 40 65 17 0 46
3 63 6 l31 7 0 273 c0 151 -3 273 -7 272 -5 -1 -120 -5 -258 -8z m-165 -560
c15 -8 50 -10 114 -5 79 6 95 5 109 -10 26 -25 10 -37 -47 -34 -34 2 -50 -1
-48 -9 1 -7 -2 -12 -7 -12 -14 0 -20 -38 -7 -44 6 -2 3 -5 -6 -5 -10 -1 -18 5
-18 12 0 6 -19 20 -41 29 -23 10 -38 22 -34 28 3 5 1 10 -4 10 -6 0 -11 -4
-11 -8 0 -7 -77 -32 -100 -32 -6 0 -19 9 -30 20 -23 23 -28 75 -7 67 7 -3 24
1 37 8 24 13 57 8 100 -15z"/>
<path d="M5067 5845 c-16 -32 -20 -53 -18 -99 1 -38 10 -28 32 35 12 32 15 58
10 72 -8 21 -9 21 -24 -8z"/>
<path d="M2685 5264 c-30 -4 -200 -14 -1215 -74 -96 -6 -362 -21 -590 -35
-228 -14 -494 -29 -590 -35 -96 -6 -201 -13 -232 -16 l-58 -6 0 -223 0 -224
31 11 c24 8 33 8 39 -3 5 -7 7 -16 5 -19 -10 -15 56 4 71 21 17 19 54 25 67
12 4 -3 -5 -15 -20 -25 -16 -10 -22 -18 -15 -18 19 0 14 -30 -5 -31 -10 0 -35
-1 -55 -3 -27 -2 -38 1 -38 11 0 7 -9 13 -21 13 -11 0 -17 -4 -14 -10 3 -5 1
-10 -4 -10 -6 0 -11 9 -11 20 0 11 -7 20 -15 20 -13 0 -15 -37 -15 -275 l0
-276 58 5 c31 3 147 13 257 21 110 9 208 21 219 26 14 8 21 7 26 -2 7 -10 64
-8 282 10 150 12 301 21 335 21 34 0 106 5 160 10 54 6 206 17 338 25 132 9
294 20 360 25 66 5 190 12 275 16 85 4 162 8 170 9 8 2 18 4 22 4 5 1 7 5 5
10 -1 5 1 9 6 10 21 3 28 0 22 -9 -10 -16 13 -12 34 7 11 9 18 20 15 25 -8 12
16 39 27 32 5 -3 9 -18 9 -35 l0 -29 106 0 106 0 -5 108 c-4 59 -6 131 -7 160
0 39 -4 52 -15 52 -18 0 -20 16 -2 23 10 4 13 72 13 328 l-1 324 -50 1 c-27 1
-63 0 -80 -2z m115 -560 c0 -9 -6 -14 -12 -11 -7 2 -27 -2 -45 -10 -42 -17
-54 -17 -47 1 12 31 104 48 104 20z m-1650 -13 c25 -5 39 -9 33 -10 -7 0 -13
-8 -13 -16 0 -19 -53 -42 -58 -26 -2 6 -15 11 -28 11 -13 0 -24 4 -24 9 0 5
-3 16 -6 25 -7 18 20 20 96 7z m-360 -9 c0 -9 -31 -37 -57 -50 -10 -6 -34 -7
-53 -4 -39 6 -147 7 -200 1 -37 -4 -60 9 -60 35 0 10 12 16 38 19 71 7 332 6
332 -1z m160 -11 c-7 -14 -19 -19 -42 -18 -18 1 -32 5 -30 10 1 4 2 12 2 17 0
6 18 10 40 10 37 0 40 -2 30 -19z m1065 9 c21 -9 9 -14 -31 -11 -11 1 -33 -3
-49 -9 -33 -13 -42 -7 -24 14 15 17 72 20 104 6z m-109 -52 c-19 -11 -50 -3
-42 11 3 4 17 6 32 3 23 -4 24 -6 10 -14z m849 -36 c0 -33 -4 -38 -20 -24 -6
5 -21 6 -35 1 l-25 -7 23 -7 c12 -4 22 -12 22 -17 0 -5 4 -6 10 -3 5 3 18 2
27 -4 17 -9 17 -10 1 -16 -9 -4 -27 0 -40 9 -12 9 -36 16 -53 16 -40 0 -75 10
-75 21 0 5 9 9 20 9 11 0 20 5 20 10 0 6 14 10 30 10 17 0 39 9 51 21 27 27
44 20 44 -19z m-699 -82 c24 0 44 -4 44 -10 0 -5 -11 -10 -25 -10 -14 0 -25
-4 -25 -10 0 -5 -7 -10 -16 -10 -8 0 -13 4 -10 9 3 5 -6 12 -21 16 -17 4 -29
2 -31 -4 -2 -6 -11 -11 -20 -11 -13 0 -11 5 8 20 14 11 31 17 38 15 8 -3 34
-5 58 -5z m184 -5 c0 -8 -4 -15 -10 -15 -5 0 -10 7 -10 15 0 8 5 15 10 15 6 0
10 -7 10 -15z m-320 -5 c0 -5 -9 -10 -19 -10 -11 0 -23 5 -26 10 -4 6 5 10 19
10 14 0 26 -4 26 -10z m327 -46 c2 -13 1 -15 -4 -4 -3 8 -11 19 -17 23 -7 6
-6 7 4 4 8 -2 16 -12 17 -23z m478 -54 c-3 -5 -15 -10 -26 -10 -11 0 -17 5
-14 10 3 6 15 10 26 10 11 0 17 -4 14 -10z m-172 -78 c-5 -20 -10 -22 -42 -16
-44 8 -65 24 -30 24 13 0 33 7 43 15 24 18 37 8 29 -23z m-873 14 c0 -11 -19
-15 -25 -6 -3 5 1 10 9 10 9 0 16 -2 16 -4z m640 -14 c0 -18 -38 -67 -46 -60
-2 2 1 21 7 41 10 38 39 52 39 19z"/>
<path d="M3180 5070 c0 -5 5 -10 10 -10 6 0 10 5 10 10 0 6 -4 10 -10 10 -5 0
-10 -4 -10 -10z"/>
<path d="M9780 4860 c-10 -7 2 -8 40 -4 30 4 57 8 59 10 10 9 -86 3 -99 -6z"/>
<path d="M9638 4853 c-10 -2 -18 -9 -18 -14 0 -11 34 -12 81 -2 28 5 30 7 14
14 -22 8 -51 9 -77 2z"/>
<path d="M7851 4444 c0 -11 3 -14 6 -6 3 7 2 16 -1 19 -3 4 -6 -2 -5 -13z"/>
<path d="M3407 4073 c-19 -3 -27 -10 -25 -21 5 -29 -10 -42 -35 -31 -15 7 -31
7 -47 0 -14 -5 -19 -10 -12 -10 6 -1 12 -10 12 -20 0 -17 5 -18 43 -14 45 6
59 17 49 41 -5 15 8 15 51 -3 12 -5 17 -2 17 9 0 9 -8 16 -20 16 -23 0 -26 10
-8 28 7 7 10 11 8 11 -3 -1 -18 -4 -33 -6z"/>
<path d="M2948 4008 c10 -13 37 -15 158 -12 80 1 148 5 152 8 3 3 -51 6 -119
6 -68 0 -142 3 -164 7 -35 6 -38 4 -27 -9z"/>
<path d="M608 3998 c7 -9 12 -20 11 -24 -6 -33 3 -54 21 -54 11 0 20 4 20 9 0
5 8 11 18 14 12 2 8 8 -18 19 -21 10 -28 17 -17 17 20 1 23 21 3 21 -8 0 -23
3 -33 7 -15 6 -16 4 -5 -9z"/>
<path d="M700 3921 c0 -18 18 -21 30 -6 10 13 9 15 -9 15 -11 0 -21 -4 -21 -9z"/>
<path d="M626 3902 c-3 -6 -1 -14 5 -17 15 -10 25 3 12 16 -7 7 -13 7 -17 1z"/>
<path d="M820 3860 c0 -5 5 -10 11 -10 5 0 7 5 4 10 -3 6 -8 10 -11 10 -2 0
-4 -4 -4 -10z"/>
<path d="M3110 3839 c-7 -11 -9 -27 -6 -35 7 -18 -22 -32 -59 -28 -22 2 -26 1
-15 -6 8 -5 22 -10 31 -10 8 0 30 -11 49 -25 39 -29 50 -31 50 -11 0 8 6 17
13 19 9 4 9 8 -2 15 -9 7 -11 19 -6 41 11 53 -32 84 -55 40z"/>
<path d="M3194 3815 c-7 -18 3 -35 21 -35 12 0 25 21 25 41 0 15 -40 10 -46
-6z"/>
<path d="M2820 3770 c0 -5 12 -10 28 -9 24 0 25 1 7 9 -27 12 -35 12 -35 0z"/>
<path d="M2908 3763 c12 -2 32 -2 45 0 12 2 2 4 -23 4 -25 0 -35 -2 -22 -4z"/>
<path d="M2850 3510 c0 -5 5 -10 10 -10 6 0 10 5 10 10 0 6 -4 10 -10 10 -5 0
-10 -4 -10 -10z"/>
<path d="M2972 3498 c2 -6 10 -14 16 -16 7 -2 10 2 6 12 -7 18 -28 22 -22 4z"/>
<path d="M2920 3490 c0 -5 5 -10 11 -10 5 0 7 5 4 10 -3 6 -8 10 -11 10 -2 0
-4 -4 -4 -10z"/>
<path d="M2938 3214 c-6 -55 44 -121 66 -86 8 13 -14 85 -32 105 -22 25 -29
21 -34 -19z"/>
</g>
</svg>
